<svg width="80" height="80" viewBox="0 0 80 80" fill="none" xmlns="http://www.w3.org/2000/svg">
<g clip-path="url(#clip0_21_397)">
<path d="M20.5733 32.6266H38.4C38.7536 32.6266 39.0927 32.4862 39.3428 32.2361C39.5928 31.9861 39.7333 31.6469 39.7333 31.2933C39.7333 30.9397 39.5928 30.6005 39.3428 30.3505C39.0927 30.1004 38.7536 29.96 38.4 29.96H20.5733C20.2197 29.96 19.8806 30.1004 19.6305 30.3505C19.3805 30.6005 19.24 30.9397 19.24 31.2933C19.24 31.6469 19.3805 31.9861 19.6305 32.2361C19.8806 32.4862 20.2197 32.6266 20.5733 32.6266Z" fill="#005B2D"/>
<path d="M20.5733 41.68H38.4C38.7536 41.68 39.0927 41.5395 39.3428 41.2894C39.5928 41.0394 39.7333 40.7003 39.7333 40.3466C39.7333 39.993 39.5928 39.6539 39.3428 39.4038C39.0927 39.1538 38.7536 39.0133 38.4 39.0133H20.5733C20.2197 39.0133 19.8806 39.1538 19.6305 39.4038C19.3805 39.6539 19.24 39.993 19.24 40.3466C19.24 40.7003 19.3805 41.0394 19.6305 41.2894C19.8806 41.5395 20.2197 41.68 20.5733 41.68Z" fill="#005B2D"/>
<path d="M75.16 27.92C76.0903 26.314 76.4174 24.4289 76.0826 22.6033C75.7478 20.7777 74.773 19.1314 73.3333 17.96C73.803 16.5187 73.7235 14.9548 73.1102 13.5685C72.4968 12.1823 71.3929 11.0716 70.0104 10.4498C68.6279 9.82805 67.0645 9.73904 65.6204 10.1999C64.1763 10.6608 62.9534 11.639 62.1867 12.9467L61.2667 14.52C60.9731 14.4063 60.6487 14.4001 60.351 14.5026C60.0532 14.6051 59.8014 14.8096 59.64 15.08L57.24 19.2H10.9467C9.99298 19.2035 9.07935 19.5839 8.40498 20.2583C7.7306 20.9327 7.35019 21.8463 7.34668 22.8V57.8933C7.35019 58.847 7.7306 59.7607 8.40498 60.4351C9.07935 61.1094 9.99298 61.4898 10.9467 61.4933H29.3333V67.2267C29.3324 67.4616 29.3936 67.6926 29.5107 67.8963C29.6277 68.1001 29.7965 68.2692 30 68.3867C30.2032 68.5019 30.4331 68.5616 30.6667 68.56C30.8957 68.5593 31.1207 68.4996 31.32 68.3867L43.56 61.4933H63.0133C63.9681 61.4933 64.8838 61.1141 65.5589 60.4389C66.2341 59.7638 66.6133 58.8481 66.6133 57.8933V32.0667L72.2267 22.3467C72.3773 22.0721 72.4264 21.7533 72.3654 21.4461C72.3045 21.1389 72.1374 20.863 71.8933 20.6667L72.0267 20.4133C72.8261 21.2071 73.3406 22.2428 73.4901 23.3594C73.6396 24.4759 73.4158 25.6106 72.8533 26.5867L68.7067 33.76C68.1169 34.7822 67.957 35.9966 68.262 37.1366C68.567 38.2766 69.312 39.2489 70.3333 39.84C70.6381 39.9994 70.9926 40.0349 71.3229 39.9391C71.6532 39.8433 71.9336 39.6236 72.1057 39.3258C72.2778 39.0281 72.3282 38.6754 72.2464 38.3414C72.1646 38.0073 71.9569 37.7178 71.6667 37.5333C71.2566 37.2963 70.9574 36.9061 70.8349 36.4486C70.7124 35.9911 70.7766 35.5036 71.0133 35.0933L75.16 27.92ZM64 57.8933C64 58.0159 63.9759 58.1373 63.929 58.2505C63.8821 58.3638 63.8133 58.4666 63.7266 58.5533C63.64 58.64 63.5371 58.7087 63.4239 58.7556C63.3106 58.8025 63.1893 58.8267 63.0667 58.8267H43.2533C43.0243 58.8274 42.7993 58.8871 42.6 59L32 64.9467V60.16C32 59.8064 31.8595 59.4672 31.6095 59.2172C31.3594 58.9672 31.0203 58.8267 30.6667 58.8267H10.9467C10.7002 58.8232 10.4648 58.7238 10.2905 58.5495C10.1162 58.3752 10.0168 58.1398 10.0133 57.8933V22.8C10.0168 22.5535 10.1162 22.3182 10.2905 22.1439C10.4648 21.9696 10.7002 21.8701 10.9467 21.8667H55.6934L45.0267 40.2533C44.867 40.5464 44.8151 40.886 44.88 41.2133L46.4667 48.0667H20.5733C20.2197 48.0667 19.8806 48.2072 19.6305 48.4572C19.3805 48.7073 19.24 49.0464 19.24 49.4C19.24 49.7536 19.3805 50.0928 19.6305 50.3428C19.8806 50.5929 20.2197 50.7333 20.5733 50.7333H48.16H48.3333C48.4177 50.7399 48.5024 50.7399 48.5867 50.7333L56.92 48.1867C57.2396 48.089 57.5108 47.8749 57.68 47.5867L64 36.68V57.8933ZM49.1733 47.7067L48.2267 43.6L53.2133 46.48L49.1733 47.7067ZM56.04 45.04L48.04 40.4267L61.3333 17.56L69.3333 22.1733L56.04 45.04ZM70.4933 17.76L69.6 19.2933L63.5733 15.8133L64.4667 14.28C64.6915 13.8772 64.9941 13.523 65.357 13.2382C65.7198 12.9534 66.1357 12.7435 66.5804 12.6209C67.0251 12.4983 67.4898 12.4653 67.9474 12.5238C68.4049 12.5824 68.8463 12.7313 69.2458 12.962C69.6453 13.1927 69.9949 13.5005 70.2744 13.8675C70.5539 14.2346 70.7576 14.6535 70.8736 15.0999C70.9897 15.5464 71.0159 16.0115 70.9506 16.4682C70.8853 16.9248 70.7299 17.364 70.4933 17.76Z" fill="#005B2D"/>
</g>
<defs>
<clipPath id="clip0_21_397">
<rect width="80" height="80" fill="white"/>
</clipPath>
</defs>
</svg>
