<svg width="80" height="80" viewBox="0 0 80 80" fill="none" xmlns="http://www.w3.org/2000/svg">
<g clip-path="url(#clip0_21_415)">
<path d="M19.68 49.9334C19.3264 49.9334 18.9873 50.0738 18.7372 50.3239C18.4872 50.5739 18.3467 50.9131 18.3467 51.2667V56.04C18.3467 56.4042 18.4914 56.7536 18.7489 57.0111C19.0065 57.2687 19.3558 57.4133 19.72 57.4133C20.0842 57.4133 20.4336 57.2687 20.6911 57.0111C20.9487 56.7536 21.0933 56.4042 21.0933 56.04V51.3067C21.0992 51.1213 21.0664 50.9367 20.9969 50.7648C20.9275 50.5928 20.8229 50.4372 20.6899 50.308C20.5569 50.1787 20.3983 50.0787 20.2245 50.0142C20.0506 49.9497 19.8651 49.9221 19.68 49.9334V49.9334Z" fill="#005B2D"/>
<path d="M21.0533 41.7734C21.0533 41.4091 20.9086 41.0598 20.6511 40.8023C20.3935 40.5447 20.0442 40.4 19.68 40.4C19.3158 40.4 18.9665 40.5447 18.7089 40.8023C18.4514 41.0598 18.3067 41.4091 18.3067 41.7734V46.5467C18.3067 46.9109 18.4514 47.2602 18.7089 47.5178C18.9665 47.7753 19.3158 47.92 19.68 47.92C20.0442 47.92 20.3935 47.7753 20.6511 47.5178C20.9086 47.2602 21.0533 46.9109 21.0533 46.5467V41.7734Z" fill="#005B2D"/>
<path d="M28.6933 42.7867H34.3467C34.7109 42.7867 35.0602 42.642 35.3178 42.3845C35.5753 42.1269 35.72 41.7776 35.72 41.4134C35.72 41.0491 35.5753 40.6998 35.3178 40.4423C35.0602 40.1847 34.7109 40.04 34.3467 40.04H28.6933C28.3291 40.04 27.9798 40.1847 27.7222 40.4423C27.4647 40.6998 27.32 41.0491 27.32 41.4134C27.32 41.7776 27.4647 42.1269 27.7222 42.3845C27.9798 42.642 28.3291 42.7867 28.6933 42.7867V42.7867Z" fill="#005B2D"/>
<path d="M47.9067 51.1467C47.9067 50.7931 47.7662 50.4539 47.5161 50.2039C47.2661 49.9538 46.927 49.8134 46.5733 49.8134H28.6933C28.3291 49.8134 27.9798 49.958 27.7222 50.2156C27.4647 50.4731 27.32 50.8225 27.32 51.1867C27.32 51.5509 27.4647 51.9002 27.7222 52.1578C27.9798 52.4153 28.3291 52.56 28.6933 52.56H46.5333C46.7187 52.5659 46.9033 52.5331 47.0752 52.4636C47.2472 52.3941 47.4028 52.2896 47.532 52.1565C47.6613 52.0235 47.7614 51.865 47.8259 51.6911C47.8904 51.5172 47.9179 51.3318 47.9067 51.1467Z" fill="#005B2D"/>
<path d="M28.6933 55.0667C28.3291 55.0667 27.9798 55.2113 27.7222 55.4689C27.4647 55.7264 27.32 56.0758 27.32 56.44C27.32 56.8042 27.4647 57.1535 27.7222 57.4111C27.9798 57.6686 28.3291 57.8133 28.6933 57.8133H42.0267C42.3909 57.8133 42.7402 57.6686 42.9978 57.4111C43.2553 57.1535 43.4 56.8042 43.4 56.44C43.4 56.0758 43.2553 55.7264 42.9978 55.4689C42.7402 55.2113 42.3909 55.0667 42.0267 55.0667H28.6933Z" fill="#005B2D"/>
<path d="M74.6667 44.56L68.16 28L72 24.2266C72.996 23.2242 73.6052 21.9017 73.72 20.4933C73.7844 19.8935 73.7123 19.2869 73.5091 18.7189C73.3059 18.1508 72.9769 17.6362 72.5467 17.2133V17.2133C72.1204 16.7818 71.6043 16.4494 71.0352 16.2397C70.466 16.03 69.8577 15.9482 69.2533 16C67.8549 16.123 66.5436 16.7315 65.5467 17.72L61.68 21.5866L45.1867 15.1333C44.9379 15.0286 44.6633 15.0019 44.399 15.0567C44.1348 15.1114 43.8933 15.2451 43.7067 15.44L40.6933 18.4533C40.5538 18.589 40.4457 18.7537 40.3766 18.9356C40.3075 19.1176 40.2791 19.3125 40.2933 19.5066C40.316 19.8425 40.4578 20.1593 40.6933 20.4C40.7316 20.4426 40.7766 20.4787 40.8267 20.5066L44.12 23.0666L43.7067 23.48C43.4485 23.7381 43.3035 24.0882 43.3035 24.4533C43.3035 24.8184 43.4485 25.1685 43.7067 25.4266C43.9648 25.6848 44.3149 25.8298 44.68 25.8298C45.0451 25.8298 45.3952 25.6848 45.6533 25.4266L46.3067 24.7733L48.64 26.5866L48.2133 27.0133C47.9552 27.2714 47.8102 27.6216 47.8102 27.9866C47.8102 28.3517 47.9552 28.7018 48.2133 28.96C48.4715 29.2181 48.8216 29.3631 49.1867 29.3631C49.5517 29.3631 49.9018 29.2181 50.16 28.96L50.8267 28.2933L53.16 30.1066L48.6533 34.6666L47.9467 35.4266L43.5867 33.7466C43.3383 33.6465 43.0656 33.6235 42.804 33.6806C42.5424 33.7377 42.3041 33.8722 42.12 34.0666L40.1867 36C40.0534 36.1247 39.9472 36.2754 39.8746 36.4428C39.802 36.6103 39.7646 36.7908 39.7646 36.9733C39.7646 37.1558 39.802 37.3363 39.8746 37.5037C39.9472 37.6712 40.0534 37.8219 40.1867 37.9466L44.28 42.04C44.2133 42.28 44.1333 42.52 44.08 42.76C43.9775 43.1689 43.9827 43.5974 44.0951 44.0038C44.2075 44.4101 44.4233 44.7804 44.7214 45.0785C45.0196 45.3766 45.3898 45.5924 45.7962 45.7048C46.2025 45.8172 46.631 45.8225 47.04 45.72L47.7467 45.52L51.8533 49.6133C51.9779 49.7444 52.1278 49.8488 52.294 49.9202C52.4602 49.9915 52.6391 50.0283 52.82 50.0283C53.0008 50.0283 53.1798 49.9915 53.346 49.9202C53.5122 49.8488 53.6621 49.7444 53.7867 49.6133L55.7333 47.6666C55.9255 47.481 56.0575 47.242 56.1122 46.9804C56.1669 46.7189 56.1417 46.447 56.04 46.2L54.3733 41.84C54.6267 41.6133 54.88 41.3866 55.12 41.1466L59.6267 36.6266L61.4533 38.9733L60.7867 39.6266C60.6534 39.7513 60.5472 39.9021 60.4746 40.0695C60.402 40.2369 60.3646 40.4175 60.3646 40.6C60.3646 40.7824 60.402 40.963 60.4746 41.1304C60.5472 41.2978 60.6534 41.4486 60.7867 41.5733C60.9114 41.7065 61.0621 41.8127 61.2295 41.8853C61.397 41.9579 61.5775 41.9954 61.76 41.9954C61.9425 41.9954 62.123 41.9579 62.2904 41.8853C62.4579 41.8127 62.6086 41.7065 62.7333 41.5733L63.1467 41.16L64.9733 43.4933L64.32 44.1466C64.1922 44.2745 64.0908 44.4262 64.0216 44.5932C63.9524 44.7602 63.9168 44.9392 63.9168 45.12C63.9168 45.3007 63.9524 45.4797 64.0216 45.6467C64.0908 45.8137 64.1922 45.9655 64.32 46.0933C64.4478 46.2211 64.5996 46.3225 64.7666 46.3917C64.9336 46.4609 65.1126 46.4965 65.2933 46.4965C65.4741 46.4965 65.6531 46.4609 65.8201 46.3917C65.9871 46.3225 66.1388 46.2211 66.2667 46.0933L66.6667 45.68L69.2267 48.9733L69.3467 49.1066C69.5858 49.3365 69.8963 49.4776 70.2267 49.5066C70.423 49.5229 70.6204 49.4954 70.8049 49.4263C70.9893 49.3571 71.1561 49.248 71.2933 49.1066L74.3067 46.08C74.5189 45.8967 74.6679 45.6511 74.7326 45.3782C74.7972 45.1053 74.7741 44.819 74.6667 44.56V44.56ZM45.3333 39.2L43.0533 36.92L43.4 36.5866L46.2 37.6533C45.8853 38.154 45.596 38.6702 45.3333 39.2V39.2ZM43.7333 19.2933L45.0667 17.96L59.6133 23.6533L55.1733 28.0933L43.7333 19.2933ZM52.8133 46.6666L50.5467 44.4C51.0667 44.1333 51.5867 43.84 52.08 43.5333L53.16 46.3333L52.8133 46.6666ZM53.1733 39.1733C51.4207 40.9214 49.2565 42.2006 46.88 42.8933C47.5818 40.494 48.8853 38.3139 50.6667 36.56L67.4933 19.6666C68.0296 19.1301 68.7377 18.7996 69.4933 18.7333C69.6918 18.715 69.8918 18.7415 70.0787 18.8107C70.2656 18.8799 70.4347 18.9901 70.5733 19.1333V19.1333C70.7253 19.2845 70.8386 19.47 70.9035 19.6743C70.9685 19.8785 70.9833 20.0954 70.9467 20.3066C70.8849 21.0491 70.5584 21.7448 70.0267 22.2666L53.1733 39.1733ZM70.44 46L61.5867 34.6666L66.04 30.2266L71.72 44.7733L70.44 46Z" fill="#005B2D"/>
<path d="M28.6933 42.7867H34.3467C34.7109 42.7867 35.0602 42.642 35.3178 42.3845C35.5753 42.1269 35.72 41.7776 35.72 41.4134C35.72 41.0491 35.5753 40.6998 35.3178 40.4423C35.0602 40.1847 34.7109 40.04 34.3467 40.04H28.6933C28.3291 40.04 27.9798 40.1847 27.7222 40.4423C27.4647 40.6998 27.32 41.0491 27.32 41.4134C27.32 41.7776 27.4647 42.1269 27.7222 42.3845C27.9798 42.642 28.3291 42.7867 28.6933 42.7867V42.7867Z" fill="#005B2D"/>
<path d="M27.32 51.1467C27.32 51.5003 27.4605 51.8394 27.7105 52.0895C27.9606 52.3395 28.2997 52.48 28.6533 52.48H46.52C46.8842 52.48 47.2336 52.3353 47.4911 52.0778C47.7487 51.8202 47.8933 51.4709 47.8933 51.1067C47.8933 50.7424 47.7487 50.3931 47.4911 50.1356C47.2336 49.878 46.8842 49.7333 46.52 49.7333H28.6933C28.508 49.7274 28.3234 49.7603 28.1514 49.8297C27.9795 49.8992 27.8239 50.0038 27.6947 50.1368C27.5654 50.2698 27.4653 50.4283 27.4008 50.6022C27.3363 50.7761 27.3088 50.9616 27.32 51.1467Z" fill="#005B2D"/>
<path d="M28.6933 55.0667C28.3291 55.0667 27.9798 55.2113 27.7222 55.4689C27.4647 55.7264 27.32 56.0758 27.32 56.44C27.32 56.8042 27.4647 57.1535 27.7222 57.4111C27.9798 57.6686 28.3291 57.8133 28.6933 57.8133H42.0267C42.3909 57.8133 42.7402 57.6686 42.9978 57.4111C43.2553 57.1535 43.4 56.8042 43.4 56.44C43.4 56.0758 43.2553 55.7264 42.9978 55.4689C42.7402 55.2113 42.3909 55.0667 42.0267 55.0667H28.6933Z" fill="#005B2D"/>
<path d="M66.4267 52.7467C66.073 52.7467 65.7339 52.8872 65.4838 53.1372C65.2338 53.3873 65.0933 53.7264 65.0933 54.08V61.72C65.0899 61.8415 65.0392 61.9568 64.952 62.0414C64.8649 62.1261 64.7482 62.1734 64.6267 62.1734H9.41333L11.4267 59.5067C11.6127 59.2713 11.7139 58.9801 11.7139 58.68C11.7139 58.38 11.6127 58.0888 11.4267 57.8534L8.38666 53.8534L11.4267 49.8534C11.6094 49.6191 11.7086 49.3305 11.7086 49.0334C11.7086 48.7363 11.6094 48.4477 11.4267 48.2134L8.38666 44L11.4267 40C11.6094 39.7658 11.7086 39.4772 11.7086 39.18C11.7086 38.8829 11.6094 38.5943 11.4267 38.36L9.41333 35.6934H33.2C33.5642 35.6934 33.9135 35.5487 34.1711 35.2911C34.4286 35.0336 34.5733 34.6843 34.5733 34.32C34.5733 33.9558 34.4286 33.6065 34.1711 33.3489C33.9135 33.0914 33.5642 32.9467 33.2 32.9467H14.7867L15.9867 27.3067L38.6667 32C38.8418 32.0377 39.0225 32.0405 39.1987 32.0083C39.3749 31.976 39.543 31.9094 39.6934 31.8122C39.8439 31.715 39.9737 31.5892 40.0755 31.4418C40.1772 31.2944 40.249 31.1285 40.2867 30.9534C40.3243 30.7783 40.3271 30.5975 40.2949 30.4213C40.2626 30.2451 40.196 30.077 40.0988 29.9266C40.0016 29.7762 39.8758 29.6464 39.7284 29.5446C39.5811 29.4428 39.4151 29.371 39.24 29.3334L16.1733 24.4267C15.5872 24.3156 14.9809 24.4373 14.4831 24.7659C13.9852 25.0945 13.635 25.6041 13.5067 26.1867L12 32.8934H6.66666C6.40387 32.8743 6.14132 32.9336 5.91217 33.0636C5.68301 33.1936 5.49752 33.3887 5.37912 33.624C5.26072 33.8594 5.21471 34.1246 5.2469 34.3861C5.27909 34.6476 5.38804 34.8937 5.55999 35.0934L8.61333 39.0934L5.55999 43.0934C5.38448 43.3333 5.28987 43.6228 5.28987 43.92C5.28987 44.2173 5.38448 44.5068 5.55999 44.7467L8.61333 48.9334L5.55999 52.9334C5.38448 53.1733 5.28987 53.4628 5.28987 53.76C5.28987 54.0573 5.38448 54.3468 5.55999 54.5867L8.61333 58.6667L5.55999 62.6667C5.40639 62.8685 5.31352 63.1099 5.29226 63.3626C5.27101 63.6153 5.32226 63.8688 5.43999 64.0934C5.54804 64.3269 5.72135 64.5242 5.939 64.6614C6.15666 64.7986 6.40938 64.8699 6.66666 64.8667H64.5867C65.4389 64.8667 66.2562 64.5282 66.8588 63.9255C67.4614 63.3229 67.8 62.5056 67.8 61.6534V54.12C67.8055 53.9382 67.7738 53.7571 67.7067 53.588C67.6397 53.4189 67.5387 53.2653 67.4101 53.1366C67.2814 53.008 67.1278 52.907 66.9587 52.84C66.7896 52.7729 66.6085 52.7412 66.4267 52.7467Z" fill="#005B2D"/>
</g>
<defs>
<clipPath id="clip0_21_415">
<rect width="80" height="80" fill="white"/>
</clipPath>
</defs>
</svg>
