<svg width="80" height="80" viewBox="0 0 80 80" fill="none" xmlns="http://www.w3.org/2000/svg">
<g clip-path="url(#clip0_710_102)">
<path d="M65.4667 13.92L62.6667 13.3333V12.9067C62.6667 11.8458 62.2452 10.8284 61.4951 10.0782C60.745 9.3281 59.7275 8.90667 58.6667 8.90667H43.7067L29.1333 5.52C28.6184 5.3977 28.0843 5.37881 27.5621 5.46441C27.0398 5.55002 26.5397 5.73842 26.0907 6.0187C25.6418 6.29898 25.2529 6.66556 24.9467 7.09722C24.6404 7.52887 24.4229 8.017 24.3067 8.53333L24.2267 8.89333H21.3333C20.2725 8.89333 19.2551 9.31476 18.5049 10.0649C17.7548 10.8151 17.3333 11.8325 17.3333 12.8933V38.7467L11.52 64C11.3997 64.514 11.3823 65.0467 11.4689 65.5675C11.5554 66.0883 11.7442 66.5867 12.0243 67.0342C12.3044 67.4816 12.6704 67.8692 13.101 68.1746C13.5316 68.4799 14.0184 68.697 14.5333 68.8133L17.3333 69.4667V69.8267C17.3333 70.8875 17.7548 71.9049 18.5049 72.6551C19.2551 73.4052 20.2725 73.8267 21.3333 73.8267H36.4267L36.5733 73.8933L50.8667 77.2C51.3816 77.3223 51.9157 77.3412 52.438 77.2556C52.9602 77.17 53.4604 76.9816 53.9093 76.7013C54.3582 76.421 54.7471 76.0544 55.0533 75.6228C55.3596 75.1911 55.5771 74.703 55.6933 74.1867L55.7733 73.8267H58.6667C59.7275 73.8267 60.745 73.4052 61.4951 72.6551C62.2452 71.9049 62.6667 70.8875 62.6667 69.8267V43.92L68.48 18.7333C68.6003 18.2193 68.6177 17.6866 68.5311 17.1658C68.4446 16.6451 68.2558 16.1466 67.9757 15.6992C67.6956 15.2517 67.3297 14.8641 66.899 14.5588C66.4684 14.2534 65.9816 14.0363 65.4667 13.92V13.92ZM17.3333 66.6667L15.1333 66.1467C14.96 66.109 14.7958 66.037 14.6506 65.9351C14.5054 65.8331 14.382 65.7032 14.2876 65.553C14.1932 65.4027 14.1298 65.2351 14.101 65.06C14.0722 64.885 14.0787 64.7059 14.12 64.5333L17.3333 50.6667V66.6667ZM28.5333 8.12L31.8533 8.89333H27.0133C27.1365 8.60717 27.3559 8.37314 27.6335 8.23188C27.9112 8.09061 28.2295 8.05103 28.5333 8.12ZM51.4667 74.5467L48.16 73.7733H52.9867C52.8636 74.0595 52.6441 74.2935 52.3665 74.4348C52.0888 74.5761 51.7705 74.6156 51.4667 74.5467ZM60 69.76C60 70.1136 59.8595 70.4528 59.6095 70.7028C59.3594 70.9529 59.0203 71.0933 58.6667 71.0933H21.3333C20.9797 71.0933 20.6406 70.9529 20.3905 70.7028C20.1405 70.4528 20 70.1136 20 69.76V12.9067C20 12.553 20.1405 12.2139 20.3905 11.9639C20.6406 11.7138 20.9797 11.5733 21.3333 11.5733H58.6667C59.0203 11.5733 59.3594 11.7138 59.6095 11.9639C59.8595 12.2139 60 12.553 60 12.9067V69.76ZM65.88 18.1333L62.6667 32.0667V16L64.8667 16.5067C65.0415 16.5442 65.2069 16.6166 65.3532 16.7194C65.4995 16.8223 65.6236 16.9535 65.7181 17.1052C65.8127 17.257 65.8757 17.4262 65.9035 17.6028C65.9313 17.7795 65.9233 17.9599 65.88 18.1333V18.1333Z" fill="#005B2D"/>
<path d="M53.3333 63.7733H28V52.9333C28 52.5797 27.8595 52.2405 27.6095 51.9905C27.3594 51.7405 27.0203 51.6 26.6666 51.6C26.313 51.6 25.9739 51.7405 25.7238 51.9905C25.4738 52.2405 25.3333 52.5797 25.3333 52.9333V65.1066C25.3333 65.4603 25.4738 65.7994 25.7238 66.0494C25.9739 66.2995 26.313 66.44 26.6666 66.44H53.3333C53.6869 66.44 54.0261 66.2995 54.2761 66.0494C54.5262 65.7994 54.6666 65.4603 54.6666 65.1066C54.6666 64.753 54.5262 64.4139 54.2761 64.1638C54.0261 63.9138 53.6869 63.7733 53.3333 63.7733V63.7733Z" fill="#005B2D"/>
<path d="M31.1066 29.6267C32.6391 29.6267 34.1089 29.0189 35.1937 27.9366C36.2786 26.8542 36.8898 25.3858 36.8933 23.8534C36.8852 22.7807 36.5757 21.7319 36 20.8267L38.4266 18.4134C38.6777 18.1623 38.8188 17.8218 38.8188 17.4667C38.8188 17.1117 38.6777 16.7711 38.4266 16.5201C38.1756 16.269 37.8351 16.1279 37.48 16.1279C37.1249 16.1279 36.7844 16.269 36.5333 16.5201L31.0933 21.9601L28.0666 18.9334C27.8168 18.6851 27.4789 18.5457 27.1266 18.5457C26.7744 18.5457 26.4365 18.6851 26.1866 18.9334C25.9383 19.1832 25.7989 19.5211 25.7989 19.8734C25.7989 20.2256 25.9383 20.5636 26.1866 20.8134V20.8134C25.6219 21.7263 25.3262 22.78 25.3333 23.8534C25.3333 25.3846 25.9416 26.853 27.0243 27.9357C28.107 29.0185 29.5755 29.6267 31.1066 29.6267V29.6267ZM28.1866 22.8134L30.1733 24.8001C30.4217 25.0464 30.7569 25.1852 31.1066 25.1867C31.4425 25.175 31.7616 25.0369 32 24.8001L33.9866 22.8134C34.1025 23.1483 34.1655 23.4991 34.1733 23.8534C34.1216 24.6439 33.771 25.3851 33.1929 25.9266C32.6147 26.4682 31.8522 26.7695 31.06 26.7695C30.2678 26.7695 29.5053 26.4682 28.9271 25.9266C28.3489 25.3851 27.9984 24.6439 27.9466 23.8534C27.965 23.4953 28.0462 23.1433 28.1866 22.8134V22.8134Z" fill="#005B2D"/>
<path d="M31.1066 44.2399C32.2517 44.2426 33.3718 43.9054 34.3252 43.2712C35.2785 42.637 36.0223 41.7341 36.4623 40.677C36.9024 39.6199 37.0189 38.4559 36.7971 37.3326C36.5753 36.2092 36.0252 35.1768 35.2165 34.3662C34.4077 33.5556 33.3767 33.0032 32.2538 32.7788C31.1309 32.5544 29.9668 32.6682 28.9086 33.1058C27.8505 33.5434 26.9459 34.2851 26.3095 35.237C25.673 36.1889 25.3333 37.3082 25.3333 38.4533C25.3368 39.9846 25.9458 41.4524 27.0274 42.5365C28.1089 43.6206 29.5753 44.2329 31.1066 44.2399ZM31.1066 35.3466C31.7249 35.344 32.3299 35.5251 32.845 35.8669C33.3601 36.2087 33.7621 36.6958 33.9999 37.2665C34.2377 37.8371 34.3006 38.4655 34.1806 39.072C34.0607 39.6785 33.7633 40.2356 33.3261 40.6728C32.889 41.1099 32.3318 41.4073 31.7254 41.5273C31.1189 41.6472 30.4905 41.5843 29.9198 41.3465C29.3492 41.1087 28.862 40.7068 28.5202 40.1917C28.1784 39.6765 27.9973 39.0715 28 38.4533C28.0035 37.6304 28.3319 36.8423 28.9138 36.2604C29.4956 35.6786 30.2838 35.3501 31.1066 35.3466V35.3466Z" fill="#005B2D"/>
<path d="M53.3333 47.1733H48.1066C47.753 47.1733 47.4139 47.3138 47.1638 47.5639C46.9138 47.8139 46.7733 48.1531 46.7733 48.5067C46.7733 48.8603 46.9138 49.1994 47.1638 49.4495C47.4139 49.6995 47.753 49.84 48.1066 49.84H50.12L42.6666 57.3333L37.4266 52C37.1768 51.7517 36.8389 51.6123 36.4866 51.6123C36.1344 51.6123 35.7965 51.7517 35.5466 52L30.7733 56.7867C30.6337 56.9062 30.5204 57.0533 30.4403 57.2187C30.3603 57.3841 30.3153 57.5643 30.3082 57.7479C30.3012 57.9316 30.3321 58.1147 30.3991 58.2858C30.4662 58.4569 30.5678 58.6123 30.6978 58.7422C30.8277 58.8721 30.9831 58.9738 31.1542 59.0409C31.3253 59.1079 31.5084 59.1388 31.692 59.1317C31.8757 59.1246 32.0558 59.0797 32.2213 58.9996C32.3867 58.9196 32.5338 58.8062 32.6533 58.6667L36.4933 54.8267L41.72 60.0667C41.8439 60.1916 41.9914 60.2908 42.1539 60.3585C42.3164 60.4262 42.4906 60.4611 42.6666 60.4611C42.8427 60.4611 43.0169 60.4262 43.1794 60.3585C43.3419 60.2908 43.4894 60.1916 43.6133 60.0667L52 51.7333V53.7333C52 54.087 52.1405 54.4261 52.3905 54.6761C52.6405 54.9262 52.9797 55.0667 53.3333 55.0667C53.6869 55.0667 54.0261 54.9262 54.2761 54.6761C54.5262 54.4261 54.6666 54.087 54.6666 53.7333V48.5067C54.6666 48.1531 54.5262 47.8139 54.2761 47.5639C54.0261 47.3138 53.6869 47.1733 53.3333 47.1733Z" fill="#005B2D"/>
<path d="M41.7733 37.12H47.4933C47.847 37.12 48.1861 36.9796 48.4361 36.7295C48.6862 36.4795 48.8267 36.1403 48.8267 35.7867C48.8267 35.4331 48.6862 35.0939 48.4361 34.8439C48.1861 34.5938 47.847 34.4534 47.4933 34.4534H41.7733C41.4197 34.4534 41.0806 34.5938 40.8305 34.8439C40.5805 35.0939 40.44 35.4331 40.44 35.7867C40.44 36.1403 40.5805 36.4795 40.8305 36.7295C41.0806 36.9796 41.4197 37.12 41.7733 37.12Z" fill="#005B2D"/>
<path d="M41.7733 42.4667H52.7467C53.1003 42.4667 53.4394 42.3262 53.6895 42.0762C53.9395 41.8261 54.08 41.487 54.08 41.1334C54.08 40.7798 53.9395 40.4406 53.6895 40.1906C53.4394 39.9405 53.1003 39.8 52.7467 39.8H41.7733C41.4197 39.8 41.0806 39.9405 40.8305 40.1906C40.5805 40.4406 40.44 40.7798 40.44 41.1334C40.44 41.487 40.5805 41.8261 40.8305 42.0762C41.0806 42.3262 41.4197 42.4667 41.7733 42.4667Z" fill="#005B2D"/>
<path d="M41.7733 22.5199H47.4933C47.847 22.5199 48.1861 22.3795 48.4361 22.1294C48.6862 21.8794 48.8267 21.5402 48.8267 21.1866C48.8267 20.833 48.6862 20.4938 48.4361 20.2438C48.1861 19.9937 47.847 19.8533 47.4933 19.8533H41.7733C41.4197 19.8533 41.0806 19.9937 40.8305 20.2438C40.5805 20.4938 40.44 20.833 40.44 21.1866C40.44 21.5402 40.5805 21.8794 40.8305 22.1294C41.0806 22.3795 41.4197 22.5199 41.7733 22.5199Z" fill="#005B2D"/>
<path d="M41.7733 27.8533H52.7467C53.1003 27.8533 53.4394 27.7128 53.6895 27.4628C53.9395 27.2127 54.08 26.8736 54.08 26.52C54.08 26.1664 53.9395 25.8272 53.6895 25.5772C53.4394 25.3271 53.1003 25.1866 52.7467 25.1866H41.7733C41.4197 25.1866 41.0806 25.3271 40.8305 25.5772C40.5805 25.8272 40.44 26.1664 40.44 26.52C40.44 26.8736 40.5805 27.2127 40.8305 27.4628C41.0806 27.7128 41.4197 27.8533 41.7733 27.8533Z" fill="#005B2D"/>
</g>
<defs>
<clipPath id="clip0_710_102">
<rect width="80" height="80" fill="white"/>
</clipPath>
</defs>
</svg>
