<svg width="1280" height="60" viewBox="0 0 1280 60" fill="none" xmlns="http://www.w3.org/2000/svg">
<path d="M1280 30.4548L1260 23.0997L1240 23.9253L1220 20.8675L1200 23.8929L1180 20.4659L1160 28.5526L1140 27.373L1120 17.1189L1100 16.0428L1080 7.35287L1060 2.55239L1040 6.76158L1020 12.3542L1000 17.0847L980 16.3457L960 15.3911L940 22.4862L920 17.4847L900 8.55932L880 6.0423L860 12.6352L840 11.761L820 14.2243L800 17.223L780 14.9611L760 19.529L740 20.6632L720 15.1449L700 18.6612L680 25.6594L660 31.158L640 25.082L620 22.0614L600 23.5173L580 31.6477L560 30.9982L540 31.193L520 28.5595L500 32.0955L480 22.4493L460 19.6179L440 21.9017L420 27.7987L400 35.126L380 39.5689L360 33.4385L340 43.0266L320 40.8653L300 49.0265L280 44.2771L260 51.9671L240 50.796L220 53.7064L200 60L180 58.6523L160 53.438L140 50.0209L120 56.5812L100 49.1491L80 49.5616L60 48.5217L40 49.5453L20 54.6764L0 52.7702V-1.43051e-06H1280V30.4548Z" fill="#003029"/>
</svg>
