<svg width="560" height="446" viewBox="0 0 560 446" fill="none" xmlns="http://www.w3.org/2000/svg">
<g clip-path="url(#clip0_862_92)">
<path d="M207.39 306.658H16.2645C12.9799 306.644 9.80324 305.485 7.28189 303.381C4.76054 301.277 3.05248 298.36 2.45204 295.133C2.20743 293.714 2.37739 292.254 2.94156 290.928L12.4013 268.451C12.8836 267.302 13.1321 266.068 13.1321 264.822C13.1321 263.575 12.8836 262.341 12.4013 261.192L3.05622 238.979C2.40043 237.482 2.20992 235.822 2.50937 234.215C3.16631 231.05 4.89111 228.207 7.39509 226.161C9.89907 224.115 13.0302 222.991 16.2645 222.976H207.39C211.111 222.988 214.675 224.47 217.305 227.099C219.935 229.729 221.417 233.291 221.428 237.009V292.63C221.416 296.347 219.933 299.908 217.303 302.537C214.673 305.165 211.11 306.647 207.39 306.658Z" fill="#39B54A"/>
<path d="M207.39 308.994H16.2644C12.4284 308.994 8.71414 307.649 5.76923 305.192C2.82433 302.735 0.835599 299.324 0.14979 295.552C-0.18138 293.684 0.0393038 291.761 0.784848 290.016L10.2401 267.539C10.6022 266.676 10.7887 265.749 10.7887 264.813C10.7887 263.877 10.6022 262.95 10.2401 262.087L0.88187 239.887C0.0462526 237.953 -0.185841 235.812 0.215942 233.743C0.980882 230.051 2.99312 226.734 5.91513 224.348C8.83714 221.962 12.4912 220.653 16.2644 220.64H207.39C211.733 220.645 215.896 222.371 218.967 225.44C222.038 228.509 223.765 232.669 223.769 237.009V292.63C223.764 296.969 222.036 301.129 218.965 304.196C215.895 307.264 211.732 308.99 207.39 308.994ZM16.2644 225.317C13.5675 225.324 10.9554 226.259 8.86717 227.965C6.77899 229.67 5.34209 232.042 4.79806 234.682C4.59117 235.827 4.73408 237.008 5.2082 238.071L14.5532 260.28C15.1536 261.718 15.4627 263.26 15.4627 264.817C15.4627 266.375 15.1536 267.917 14.5532 269.355L5.09354 291.832C4.70297 292.738 4.58349 293.738 4.74955 294.71C5.23832 297.405 6.65848 299.843 8.76218 301.598C10.8659 303.353 13.5195 304.314 16.26 304.314H207.39C210.491 304.31 213.465 303.078 215.658 300.887C217.851 298.696 219.086 295.725 219.09 292.626V237.009C219.087 233.909 217.853 230.937 215.66 228.745C213.466 226.553 210.492 225.32 207.39 225.317H16.2644Z" fill="#231F20"/>
<path d="M352.505 150.863H543.631C546.915 150.879 550.091 152.038 552.611 154.142C555.131 156.246 556.839 159.162 557.439 162.388C557.684 163.808 557.514 165.268 556.95 166.593L547.49 189.071C547.007 190.22 546.759 191.454 546.759 192.7C546.759 193.946 547.007 195.18 547.49 196.329L556.835 218.538C557.491 220.036 557.681 221.695 557.382 223.302C556.725 226.467 555 229.311 552.496 231.357C549.992 233.402 546.861 234.527 543.627 234.541H352.505C348.785 234.529 345.221 233.047 342.591 230.418C339.96 227.789 338.478 224.226 338.468 220.508V164.892C338.479 161.175 339.962 157.613 342.592 154.985C345.222 152.357 348.786 150.875 352.505 150.863Z" fill="#39B54A"/>
<path d="M543.631 236.881H352.505C348.163 236.877 343.999 235.151 340.928 232.082C337.858 229.013 336.131 224.852 336.126 220.512V164.892C336.135 160.555 337.865 156.399 340.935 153.334C344.005 150.269 348.166 148.545 352.505 148.541H543.631C547.467 148.541 551.181 149.886 554.126 152.343C557.071 154.8 559.06 158.211 559.746 161.983C560.075 163.848 559.854 165.768 559.111 167.51L549.655 189.987C549.293 190.85 549.107 191.777 549.107 192.713C549.107 193.649 549.293 194.576 549.655 195.439L558.996 217.643C559.837 219.576 560.076 221.717 559.679 223.787C558.913 227.478 556.9 230.793 553.978 233.177C551.056 235.561 547.403 236.869 543.631 236.881ZM352.505 153.203C349.404 153.207 346.431 154.439 344.237 156.631C342.044 158.822 340.81 161.793 340.805 164.892V220.512C340.809 223.612 342.042 226.585 344.236 228.777C346.429 230.969 349.403 232.202 352.505 232.205H543.631C546.328 232.197 548.939 231.262 551.027 229.556C553.115 227.851 554.553 225.479 555.097 222.84C555.304 221.694 555.161 220.513 554.687 219.45L545.342 197.242C544.742 195.804 544.433 194.262 544.433 192.704C544.433 191.147 544.742 189.604 545.342 188.167L554.802 165.69C555.195 164.784 555.314 163.784 555.146 162.812C554.657 160.117 553.237 157.679 551.133 155.924C549.03 154.169 546.376 153.207 543.635 153.208L352.505 153.203Z" fill="#231F20"/>
<path d="M95.1615 106.23L271.125 4.70255C273.799 3.1586 276.832 2.3457 279.919 2.3457C283.007 2.3457 286.04 3.1586 288.713 4.70255L464.677 106.23C467.351 107.773 469.572 109.992 471.116 112.664C472.66 115.336 473.474 118.367 473.475 121.453V324.508C473.474 327.594 472.66 330.625 471.116 333.297C469.572 335.969 467.351 338.188 464.677 339.731L288.713 441.259C286.04 442.803 283.007 443.616 279.919 443.616C276.832 443.616 273.799 442.803 271.125 441.259L95.1615 339.731C92.4879 338.188 90.2678 335.969 88.7242 333.297C87.1806 330.625 86.3679 327.594 86.3677 324.508V121.449C86.3687 118.364 87.1818 115.334 88.7253 112.663C90.2689 109.991 92.4886 107.773 95.1615 106.23Z" fill="#C49A6C"/>
<path d="M279.919 445.944C276.424 445.95 272.988 445.038 269.957 443.299L93.9928 341.767C90.9664 340.016 88.453 337.501 86.704 334.475C84.9549 331.449 84.0314 328.016 84.0259 324.521V121.449C84.0314 117.954 84.9549 114.521 86.704 111.495C88.453 108.469 90.9664 105.954 93.9928 104.203L269.957 2.65748C272.989 0.916293 276.424 0 279.921 0C283.418 0 286.854 0.916293 289.886 2.65748L465.85 104.189C468.875 105.942 471.387 108.457 473.135 111.483C474.884 114.509 475.807 117.941 475.812 121.435V324.508C475.807 328.003 474.884 331.434 473.135 334.461C471.387 337.487 468.875 340.002 465.85 341.754L289.886 443.286C286.854 445.03 283.417 445.946 279.919 445.944ZM95.1614 106.23L96.3301 108.253C94.0152 109.595 92.0929 111.52 90.7549 113.836C89.4169 116.152 88.7101 118.779 88.705 121.453V324.508C88.7096 327.182 89.4162 329.808 90.7542 332.124C92.0923 334.439 94.015 336.363 96.3301 337.704L272.294 439.236C274.614 440.568 277.243 441.269 279.919 441.269C282.595 441.269 285.224 440.568 287.544 439.236L463.504 337.704C465.819 336.364 467.742 334.44 469.081 332.124C470.419 329.809 471.125 327.182 471.129 324.508V121.449C471.124 118.774 470.418 116.147 469.08 113.831C467.742 111.515 465.819 109.59 463.504 108.249L287.54 6.72105C285.22 5.389 282.59 4.68802 279.915 4.68802C277.239 4.68802 274.61 5.389 272.29 6.72105L96.3257 108.249L95.1614 106.23Z" fill="#231F20"/>
<path d="M177.265 82.1086L192.145 107.865L207.024 133.617H177.265H147.505L162.385 107.865L177.265 82.1086Z" fill="#006838"/>
<path d="M207.024 135.958H147.488C147.075 135.958 146.669 135.85 146.311 135.644C145.953 135.437 145.657 135.14 145.451 134.782C145.246 134.424 145.139 134.018 145.141 133.605C145.143 133.192 145.254 132.788 145.463 132.432L175.218 80.923C175.423 80.5669 175.718 80.271 176.074 80.0653C176.43 79.8596 176.834 79.7512 177.245 79.7512C177.656 79.7512 178.06 79.8596 178.416 80.0653C178.771 80.271 179.066 80.5669 179.271 80.923L209.04 132.449C209.249 132.805 209.36 133.21 209.362 133.623C209.364 134.036 209.257 134.442 209.052 134.8C208.846 135.158 208.55 135.455 208.192 135.661C207.834 135.868 207.428 135.976 207.015 135.975L207.024 135.958ZM151.558 131.281H202.971L177.287 86.7848L151.558 131.281Z" fill="#231F20"/>
<path d="M338.468 63.7961L358.635 98.7067L378.807 133.617H338.468H298.128L318.3 98.7067L338.468 63.7961Z" fill="#006838"/>
<path d="M378.83 135.958H298.124C297.711 135.958 297.305 135.85 296.948 135.644C296.59 135.437 296.293 135.14 296.088 134.782C295.882 134.424 295.775 134.018 295.777 133.605C295.78 133.192 295.891 132.788 296.1 132.432L336.435 62.6105C336.64 62.2544 336.935 61.9585 337.291 61.7528C337.647 61.5471 338.05 61.4387 338.462 61.4387C338.873 61.4387 339.276 61.5471 339.632 61.7528C339.988 61.9585 340.283 62.2544 340.488 62.6105L380.827 132.432C381.037 132.788 381.148 133.192 381.15 133.605C381.152 134.018 381.045 134.424 380.839 134.782C380.634 135.14 380.337 135.437 379.98 135.644C379.622 135.85 379.216 135.958 378.803 135.958H378.83ZM302.182 131.281H374.755L338.468 68.4723L302.182 131.281Z" fill="#231F20"/>
<path d="M380.227 87.6223L393.515 110.62L406.803 133.617H380.227H353.656L366.944 110.62L380.227 87.6223Z" fill="#009444"/>
<path d="M406.802 135.958H353.656C353.243 135.959 352.836 135.852 352.478 135.645C352.12 135.439 351.822 135.142 351.616 134.784C351.41 134.426 351.303 134.019 351.305 133.606C351.307 133.193 351.418 132.788 351.627 132.432L378.203 86.4323C378.409 86.0773 378.704 85.7825 379.06 85.5776C379.415 85.3727 379.819 85.2649 380.229 85.2649C380.64 85.2649 381.043 85.3727 381.399 85.5776C381.754 85.7825 382.05 86.0773 382.256 86.4323L408.818 132.449C409.027 132.805 409.138 133.21 409.141 133.623C409.143 134.036 409.036 134.442 408.83 134.8C408.624 135.158 408.328 135.455 407.97 135.661C407.613 135.868 407.207 135.976 406.794 135.975L406.802 135.958ZM357.709 131.281H402.75L380.227 92.2985L357.709 131.281Z" fill="#231F20"/>
<path d="M485.082 170.163H74.7557C67.003 170.163 60.7183 176.444 60.7183 184.192V266.442C60.7183 274.189 67.003 280.47 74.7557 280.47H485.082C492.835 280.47 499.12 274.189 499.12 266.442V184.192C499.12 176.444 492.835 170.163 485.082 170.163Z" fill="#39B54A"/>
<path d="M485.082 282.806H74.7556C70.4142 282.801 66.2519 281.076 63.1821 278.008C60.1122 274.94 58.3855 270.78 58.3809 266.441V184.192C58.3855 179.853 60.1122 175.693 63.1821 172.625C66.2519 169.557 70.4142 167.832 74.7556 167.827H485.082C489.424 167.831 493.587 169.556 496.657 172.624C499.727 175.692 501.453 179.853 501.457 184.192V266.441C501.453 270.781 499.727 274.941 496.657 278.009C493.587 281.077 489.424 282.802 485.082 282.806ZM74.7556 172.503C71.6556 172.508 68.6839 173.741 66.4923 175.932C64.3006 178.123 63.0679 181.094 63.0644 184.192V266.441C63.0714 269.537 64.3057 272.504 66.497 274.692C68.6882 276.881 71.6579 278.112 74.7556 278.117H485.082C488.183 278.113 491.156 276.88 493.348 274.689C495.541 272.498 496.774 269.527 496.778 266.428V184.192C496.774 181.093 495.541 178.122 493.348 175.931C491.156 173.739 488.183 172.507 485.082 172.503H74.7556Z" fill="#231F20"/>
<path d="M279.919 41.6228L306.494 87.6222L333.065 133.617H279.919H226.772L253.348 87.6222L279.919 41.6228Z" fill="#009444"/>
<path d="M333.065 135.957H226.782C226.369 135.958 225.963 135.85 225.605 135.644C225.247 135.437 224.951 135.14 224.745 134.782C224.54 134.424 224.432 134.018 224.435 133.605C224.437 133.192 224.548 132.787 224.757 132.432L277.895 40.4548C278.101 40.0997 278.396 39.805 278.752 39.6001C279.107 39.3952 279.511 39.2874 279.921 39.2874C280.332 39.2874 280.735 39.3952 281.091 39.6001C281.446 39.805 281.742 40.0997 281.948 40.4548L335.094 132.449C335.304 132.805 335.415 133.211 335.417 133.624C335.419 134.037 335.311 134.443 335.105 134.801C334.899 135.16 334.602 135.457 334.244 135.663C333.885 135.869 333.479 135.977 333.065 135.975V135.957ZM230.826 131.281H328.995L279.919 46.2901L230.826 131.281Z" fill="#231F20"/>
<path d="M231.095 63.7961L251.262 98.7067L271.434 133.617H231.095H190.76L210.927 98.7067L231.095 63.7961Z" fill="#39B54A"/>
<path d="M271.434 135.958H190.755C190.342 135.959 189.936 135.85 189.579 135.644C189.221 135.437 188.924 135.14 188.719 134.782C188.513 134.424 188.406 134.018 188.408 133.605C188.41 133.192 188.522 132.788 188.731 132.432L229.07 62.6106C229.274 62.2541 229.569 61.9578 229.924 61.7519C230.28 61.546 230.684 61.4378 231.095 61.4382C231.506 61.4379 231.91 61.5461 232.267 61.752C232.623 61.9578 232.918 62.254 233.123 62.6106L273.458 132.432C273.667 132.788 273.779 133.192 273.781 133.605C273.783 134.018 273.676 134.424 273.47 134.782C273.265 135.14 272.968 135.437 272.611 135.644C272.253 135.85 271.847 135.959 271.434 135.958ZM194.808 131.281H267.381L231.09 68.4724L194.808 131.281Z" fill="#231F20"/>
<path d="M294.665 325.402C294.665 329.413 291.412 332.665 287.398 332.665C283.384 332.665 280.13 329.413 280.13 325.402C280.13 321.39 283.384 318.138 287.398 318.138C291.412 318.138 294.665 321.39 294.665 325.402Z" fill="#006838"/>
<path fill-rule="evenodd" clip-rule="evenodd" d="M287.398 318.91C283.811 318.91 280.903 321.816 280.903 325.402C280.903 328.987 283.811 331.893 287.398 331.893C290.985 331.893 293.893 328.987 293.893 325.402C293.893 321.816 290.985 318.91 287.398 318.91ZM279.357 325.402C279.357 320.964 282.957 317.366 287.398 317.366C291.838 317.366 295.438 320.964 295.438 325.402C295.438 329.84 291.838 333.437 287.398 333.437C282.957 333.437 279.357 329.84 279.357 325.402Z" fill="#231F20"/>
<path d="M270.843 367.462L269.547 376.541C269.547 376.541 266.204 384.475 263.906 389.133C262.168 392.659 261.348 395.206 262.543 395.845C264.378 396.819 266.839 394.633 269.419 390.614C273.745 383.875 275.972 380.504 276.806 378.864L278.129 374.584C278.129 374.584 271.69 370.34 270.843 367.462Z" fill="#006838"/>
<path fill-rule="evenodd" clip-rule="evenodd" d="M270.581 363.834L271.584 367.244C271.746 367.792 272.209 368.491 272.913 369.273C273.601 370.037 274.454 370.81 275.296 371.508C276.137 372.204 276.953 372.813 277.56 373.249C277.863 373.467 278.113 373.641 278.287 373.759C278.374 373.819 278.441 373.864 278.487 373.895C278.51 373.91 278.527 373.922 278.538 373.929L278.551 373.938L278.554 373.94L279.038 374.259L277.524 379.155L277.494 379.214C276.808 380.564 275.218 383.032 272.401 387.406C271.701 388.493 270.925 389.697 270.069 391.031C268.763 393.066 267.448 394.701 266.182 395.707C264.936 396.697 263.514 397.235 262.181 396.527L262.179 396.526C261.62 396.227 261.339 395.709 261.246 395.15C261.157 394.62 261.227 394.015 261.373 393.395C261.667 392.146 262.341 390.562 263.213 388.792C264.354 386.479 265.758 383.345 266.88 380.781C267.441 379.5 267.929 378.365 268.278 377.55C268.452 377.143 268.592 376.815 268.687 376.59C268.735 376.478 268.771 376.392 268.796 376.333L270.581 363.834ZM269.547 376.541C270.259 376.841 270.259 376.841 270.259 376.841L270.22 376.932C270.195 376.992 270.158 377.079 270.11 377.193C270.014 377.419 269.874 377.748 269.699 378.157C269.349 378.975 268.858 380.114 268.296 381.4C267.172 383.967 265.756 387.128 264.599 389.474C263.734 391.23 263.128 392.682 262.877 393.749C262.75 394.286 262.73 394.659 262.77 394.896C262.804 395.103 262.868 395.143 262.907 395.164C263.408 395.43 264.134 395.361 265.221 394.498C266.289 393.649 267.495 392.181 268.768 390.197C269.642 388.836 270.429 387.614 271.135 386.519C273.9 382.225 275.424 379.859 276.087 378.572L277.222 374.901C277.065 374.792 276.875 374.658 276.659 374.503C276.032 374.054 275.186 373.422 274.311 372.697C273.438 371.974 272.522 371.147 271.765 370.306C271.603 370.127 271.446 369.943 271.296 369.757L270.297 376.749L270.259 376.841L269.547 376.541Z" fill="#231F20"/>
<path d="M311.077 341.622C310.054 339.691 308.259 340.388 306.45 341.252V337.655C306.466 337.559 306.461 337.461 306.435 337.368C306.409 337.274 306.363 337.187 306.3 337.113C306.237 337.039 306.159 336.98 306.07 336.939C305.982 336.898 305.886 336.877 305.789 336.877C305.692 336.877 305.596 336.898 305.507 336.939C305.419 336.98 305.341 337.039 305.278 337.113C305.215 337.187 305.169 337.274 305.143 337.368C305.117 337.461 305.112 337.559 305.127 337.655V341.882L298.424 345.029L288.814 338.021C288.514 337.81 288.182 337.647 287.831 337.541C287.786 337.511 287.739 337.484 287.69 337.461L280.104 335.35C279.064 335.059 277.63 336.166 277.361 337.995L272.188 356.585C271.394 360.419 271.372 363.262 274.795 366.409C274.832 366.482 274.877 366.551 274.927 366.616L287.796 377.445L286.371 391.319C286.265 394.744 286.468 396.727 288.642 396.952C290.675 397.163 291.571 392.941 291.782 391.874C291.782 391.874 294.384 378.582 294.697 376.709C295.011 374.836 295.205 372.623 293.815 371.208L283.888 361.353L287.712 345.655L295.174 351.054C296.148 351.754 297.643 352.12 298.742 351.644C298.742 351.644 302.358 349.44 305.127 347.739V395.828C305.153 395.985 305.234 396.127 305.355 396.23C305.476 396.333 305.63 396.389 305.789 396.389C305.948 396.389 306.102 396.333 306.223 396.23C306.344 396.127 306.425 395.985 306.45 395.828V346.906L307.773 346.078C309.754 344.786 311.848 343.063 311.077 341.622Z" fill="#006838"/>
<path fill-rule="evenodd" clip-rule="evenodd" d="M280.312 334.606C280.312 334.607 280.312 334.607 280.312 334.607L287.96 336.735L288.02 336.763C288.065 336.785 288.11 336.808 288.154 336.833C288.548 336.963 288.92 337.151 289.259 337.39L289.265 337.394L298.51 344.135L304.355 341.392V337.706C304.335 337.524 304.349 337.339 304.399 337.161C304.455 336.96 304.554 336.773 304.689 336.613C304.825 336.454 304.993 336.326 305.183 336.238C305.373 336.15 305.58 336.105 305.789 336.105C305.998 336.105 306.205 336.15 306.395 336.238C306.585 336.326 306.753 336.454 306.889 336.613C307.024 336.773 307.123 336.96 307.179 337.161C307.228 337.338 307.243 337.524 307.223 337.706V340.063C307.811 339.83 308.425 339.648 309.019 339.618C309.533 339.592 310.062 339.676 310.557 339.956C311.051 340.236 311.449 340.676 311.759 341.259C312.389 342.439 311.751 343.598 311.039 344.414C310.291 345.27 309.198 346.071 308.196 346.724L308.19 346.728L307.223 347.334V395.891L307.213 395.953C307.158 396.29 306.984 396.597 306.723 396.819C306.462 397.04 306.131 397.162 305.789 397.162C305.447 397.162 305.116 397.04 304.855 396.819C304.594 396.597 304.42 396.29 304.365 395.953L304.355 395.891V349.119C303.296 349.768 302.206 350.434 301.299 350.989C300.673 351.37 300.135 351.699 299.752 351.932L299.144 352.303L299.144 352.303C299.144 352.303 299.144 352.303 298.742 351.644L299.144 352.303L299.098 352.331L299.049 352.353C298.32 352.669 297.506 352.688 296.768 352.549C296.026 352.409 295.304 352.098 294.723 351.68L294.721 351.679L288.19 346.954L284.742 361.113L294.363 370.664L294.367 370.668C295.226 371.543 295.568 372.642 295.664 373.718C295.759 374.785 295.618 375.887 295.459 376.836C295.301 377.785 294.569 381.591 293.881 385.141C293.536 386.92 293.201 388.64 292.952 389.916C292.828 390.554 292.725 391.08 292.653 391.448L292.541 392.022C292.541 392.023 292.541 392.023 291.784 391.875L292.541 392.022L292.54 392.025C292.433 392.563 292.144 393.955 291.604 395.2C291.336 395.818 290.982 396.457 290.514 396.936C290.036 397.427 289.38 397.805 288.563 397.72M288.563 397.72C287.902 397.651 287.325 397.441 286.859 397.05C286.395 396.661 286.103 396.146 285.917 395.574C285.559 394.473 285.547 392.986 285.599 391.295L285.6 391.268L286.985 377.772L274.366 367.154L274.316 367.089C274.268 367.026 274.223 366.961 274.182 366.894C272.435 365.263 271.509 363.653 271.153 361.909C270.797 360.164 271.031 358.365 271.432 356.428L271.437 356.403L276.605 337.832C276.772 336.769 277.276 335.888 277.927 335.303C278.57 334.726 279.452 334.366 280.312 334.606M298.39 350.954L298.947 350.614C299.33 350.381 299.868 350.053 300.493 349.671C301.743 348.907 303.339 347.932 304.723 347.081L305.678 346.495V346.479L307.357 345.427C308.333 344.79 309.275 344.085 309.875 343.398C310.512 342.669 310.535 342.247 310.396 341.986L310.394 341.983C310.192 341.602 309.982 341.406 309.796 341.3C309.61 341.195 309.386 341.145 309.097 341.16C308.472 341.192 307.707 341.507 306.784 341.948L305.9 342.37V342.372L305.679 342.476L305.678 342.477L298.338 345.922L288.364 338.649C288.133 338.486 287.877 338.362 287.606 338.279L287.499 338.247L287.405 338.185C287.404 338.184 287.403 338.183 287.402 338.183L279.896 336.094C279.715 336.043 279.361 336.091 278.96 336.452C278.577 336.796 278.235 337.364 278.126 338.107L278.119 338.155L272.94 356.767C272.55 358.652 272.379 360.185 272.667 361.6C272.951 362.993 273.7 364.353 275.318 365.841L275.418 365.933L275.481 366.054C275.487 366.066 275.494 366.078 275.501 366.089L288.606 377.117L287.143 391.37C287.09 393.089 287.127 394.297 287.387 395.097C287.51 395.477 287.669 395.714 287.852 395.867C288.032 396.018 288.296 396.14 288.722 396.184L288.722 396.184C288.922 396.204 289.139 396.134 289.408 395.859C289.686 395.573 289.951 395.129 290.187 394.585C290.655 393.505 290.919 392.254 291.024 391.725C291.024 391.725 291.025 391.725 291.025 391.724L291.137 391.152C291.208 390.784 291.311 390.258 291.436 389.62C291.684 388.345 292.019 386.625 292.364 384.847C293.055 381.282 293.781 377.505 293.935 376.581C294.09 375.657 294.202 374.717 294.125 373.855C294.049 373.005 293.795 372.292 293.267 371.752L283.034 361.594L287.233 344.355L295.625 350.427C295.625 350.427 295.625 350.427 295.626 350.427C296.019 350.71 296.531 350.932 297.055 351.031C297.561 351.127 298.027 351.098 298.39 350.954Z" fill="#231F20"/>
<path d="M268.541 354.055C269.229 351.812 273.776 337.708 273.776 337.708C275.54 331.657 267.456 332.94 263.911 336.628C260.365 340.317 256.281 346.06 255.677 350.384C255.126 354.35 258.649 355.778 262.05 356.814C265.45 357.85 267.853 356.294 268.541 354.055Z" fill="#006838"/>
<path fill-rule="evenodd" clip-rule="evenodd" d="M274.069 333.972C274.866 334.921 274.996 336.283 274.517 337.924L274.514 337.935L274.511 337.945L273.776 337.708C274.511 337.945 274.511 337.945 274.511 337.945L274.511 337.946L274.314 338.555C274.189 338.945 274.008 339.505 273.79 340.184C273.353 341.541 272.763 343.374 272.152 345.276C270.928 349.086 269.622 353.166 269.279 354.281C268.875 355.597 267.962 356.721 266.649 357.357C265.335 357.995 263.679 358.118 261.824 357.553C260.128 357.036 258.265 356.386 256.9 355.303C256.206 354.751 255.619 354.072 255.252 353.222C254.884 352.37 254.756 351.392 254.911 350.278L254.911 350.277C255.236 347.954 256.476 345.326 258.037 342.856C259.607 340.37 261.548 337.971 263.353 336.094C265.263 334.107 268.365 332.772 270.825 332.744C272.056 332.73 273.291 333.045 274.069 333.972ZM273.037 337.482C273.436 336.104 273.217 335.36 272.885 334.964C272.533 334.545 271.856 334.276 270.843 334.288C268.816 334.311 266.104 335.461 264.467 337.163C262.727 338.974 260.853 341.292 259.344 343.68C257.825 346.084 256.721 348.49 256.442 350.49M273.037 337.482L272.844 338.082C272.718 338.472 272.538 339.032 272.319 339.71C271.882 341.068 271.292 342.901 270.681 344.804C269.459 348.607 268.148 352.7 267.802 353.828C267.519 354.751 266.886 355.526 265.975 355.968C265.066 356.409 263.82 356.546 262.274 356.076C260.57 355.556 258.971 354.974 257.862 354.093C257.319 353.663 256.916 353.177 256.671 352.61C256.428 352.047 256.321 351.359 256.442 350.49" fill="#231F20"/>
<path d="M163.426 327.35H167.571C167.35 327.847 167.018 328.62 166.935 328.786C166.797 329.034 166.493 329.311 165.858 329.311H161.437V310.533C161.465 310.229 161.713 309.98 162.045 309.98H167.212L166.549 311.416C166.438 311.665 166.134 311.969 165.499 311.969H163.896C163.62 311.969 163.426 312.162 163.426 312.438V318.182H166.41C166.189 318.679 165.858 319.48 165.775 319.645C165.637 319.894 165.361 320.17 164.725 320.17H163.896C163.647 320.17 163.426 320.391 163.426 320.64V327.35Z" fill="#231F20"/>
<path d="M182.757 314.178C182.591 314.261 181.817 314.62 181.292 314.84V312.604C181.292 311.996 180.823 311.527 180.242 311.527C179.662 311.527 179.192 311.996 179.192 312.604V314.454C179.192 315.586 180.049 317.05 180.049 317.05L182.425 321.523C183.392 323.291 183.309 324.588 183.309 324.588V327.046C183.309 328.399 182.204 329.504 180.823 329.504H179.579C178.253 329.449 177.203 328.372 177.175 327.046V325.058C177.175 324.423 177.479 324.119 177.728 323.981C177.894 323.926 178.695 323.567 179.192 323.346V326.715C179.192 327.295 179.662 327.764 180.242 327.764C180.823 327.764 181.292 327.295 181.292 326.687V324.478C181.292 323.346 180.436 321.855 180.436 321.855L178.06 317.409C177.093 315.641 177.175 314.343 177.175 314.343V312.355C177.175 311.002 178.281 309.787 179.662 309.787H180.906C182.232 309.815 183.309 311.03 183.309 312.355V313.101C183.309 313.736 183.005 314.04 182.757 314.178Z" fill="#231F20"/>
<path d="M200.706 309.98L200.042 311.416C199.932 311.665 199.628 311.941 198.993 311.941H197.445C197.169 311.941 196.975 312.162 196.948 312.41V329.311H195.539C195.069 329.311 194.986 329.034 194.986 328.896V311.941H192.195V310.588C192.195 310.256 192.472 309.98 192.803 309.98H200.706Z" fill="#231F20"/>
<path d="M210.233 329.311H208.823C208.52 329.311 208.271 329.062 208.243 328.758V326.881H209.901C210.233 326.881 210.233 327.184 210.233 327.184V329.311Z" fill="#231F20"/>
<path d="M108.816 207.418L103.191 244.193H101.299C99.4061 244.193 99.0907 241.934 99.0381 241.619L93.7812 207.418H96.6725C96.9354 207.418 97.5662 207.628 97.7765 208.837L101.299 231.9L105.031 207.418H108.816Z" fill="#231F20"/>
<path d="M138.989 244.193H134.837L131.525 218.871L128.213 244.193H124.06L129.632 207.418H131.682C133.259 207.418 133.522 208.416 133.68 209.415L138.989 244.193Z" fill="#231F20"/>
<path d="M160.941 240.463H169.457C169.036 241.409 168.405 242.88 168.248 243.195C167.985 243.668 167.407 244.193 166.197 244.193H157.156V207.418H159.784C160.415 207.471 160.941 207.944 160.941 208.574V240.463Z" fill="#231F20"/>
<path d="M190.264 240.463H198.149C197.728 241.409 197.098 242.88 196.94 243.195C196.677 243.668 196.099 244.193 194.89 244.193H186.479V208.469C186.531 207.891 187.004 207.418 187.635 207.418H197.466L196.204 210.15C195.994 210.623 195.415 211.201 194.206 211.201H191.157C190.632 211.201 190.264 211.569 190.264 212.094V223.021H195.941C195.52 223.967 194.89 225.491 194.732 225.806C194.469 226.279 193.943 226.804 192.734 226.804H191.157C190.684 226.804 190.264 227.224 190.264 227.697V240.463Z" fill="#231F20"/>
<path d="M228.303 207.418V244.193H226.568C224.518 244.193 224.202 242.565 224.045 241.829L219.997 223.652V244.193H216.212V207.418H217.947C220.049 207.418 220.417 208.416 220.628 209.467L224.518 228.59V207.418H228.303Z" fill="#231F20"/>
<path d="M259.666 231.007V239.885C259.666 242.407 257.668 244.456 255.145 244.561H252.832C250.203 244.561 248.101 242.459 248.101 239.885V211.726C248.101 209.152 250.203 207.051 252.832 207.051H255.145C257.668 207.103 259.666 209.204 259.666 211.726V217.348C259.666 218.556 259.14 219.134 258.667 219.344L255.933 220.605V212.357C255.933 211.253 255.04 210.36 253.883 210.36C252.779 210.36 251.886 211.253 251.886 212.357V239.202C251.886 240.358 252.779 241.251 253.883 241.251C255.04 241.251 255.933 240.358 255.933 239.202V234.264C255.933 233.056 256.459 232.478 256.932 232.215C257.248 232.057 258.719 231.427 259.666 231.007Z" fill="#231F20"/>
<path d="M280.778 207.418H283.038C284.142 207.418 284.563 208.259 284.563 208.889V244.193H281.882C280.988 244.193 280.83 243.668 280.778 243.405V207.418Z" fill="#231F20"/>
<path d="M318.154 244.193H314.001L310.689 218.871L307.378 244.193H303.225L308.797 207.418H310.847C312.424 207.418 312.687 208.416 312.845 209.415L318.154 244.193Z" fill="#231F20"/>
<path d="M375.043 207.418H377.303C378.46 207.418 378.828 208.259 378.828 208.889V244.193H375.043V228.17C374.99 227.697 374.622 227.329 374.149 227.329H370.049V244.193H366.264V208.889C366.264 208.259 366.632 207.418 367.788 207.418H370.049V222.286C370.049 223.337 370.469 223.599 371.363 223.599H375.043V207.418Z" fill="#231F20"/>
<path d="M399.519 207.418H401.78C402.884 207.418 403.304 208.259 403.304 208.889V244.193H400.623C399.73 244.193 399.572 243.668 399.519 243.405V207.418Z" fill="#231F20"/>
<path d="M438.105 244.193H434.162L429.115 227.75V244.193H425.383V208.837C425.383 207.681 426.172 207.471 426.592 207.418H429.115V220.815L433.741 207.523H437.684L431.744 224.072L438.105 244.193Z" fill="#231F20"/>
<path d="M461.372 240.463H469.257C468.837 241.409 468.206 242.88 468.048 243.195C467.785 243.668 467.207 244.193 465.998 244.193H457.587V208.469C457.64 207.891 458.113 207.418 458.744 207.418H468.574L467.312 210.15C467.102 210.623 466.524 211.201 465.315 211.201H462.266C461.74 211.201 461.372 211.569 461.372 212.094V223.021H467.049C466.629 223.967 465.998 225.491 465.84 225.806C465.578 226.279 465.052 226.804 463.843 226.804H462.266C461.793 226.804 461.372 227.224 461.372 227.697V240.463Z" fill="#231F20"/>
<path d="M347.486 311.527C346.906 311.527 346.436 311.996 346.436 312.576V314.84C345.911 314.62 345.138 314.261 344.972 314.178C344.723 314.04 344.447 313.736 344.447 313.101V312.245C344.447 310.892 345.552 309.787 346.906 309.787H348.067C349.42 309.787 350.526 310.892 350.526 312.245V315.586C350.526 315.586 350.553 316.939 350.084 317.933L347.293 324.285C347.293 324.285 346.436 326.135 346.436 327.019V327.322H351.244C351.023 327.847 350.691 328.593 350.609 328.758C350.47 329.007 350.166 329.311 349.531 329.311H344.447V327.626C344.447 327.626 344.392 326.163 345.276 324.229L347.68 318.651C347.68 318.651 348.536 316.774 348.536 315.807V312.576C348.536 311.996 348.067 311.527 347.486 311.527Z" fill="#231F20"/>
<path d="M363.639 309.787H364.883C366.209 309.842 367.259 310.919 367.259 312.245V327.074C367.259 328.399 366.181 329.449 364.883 329.504H363.639C362.285 329.504 361.18 328.399 361.18 327.074V312.245C361.18 310.892 362.285 309.787 363.639 309.787ZM364.219 327.764C364.8 327.764 365.269 327.295 365.269 326.715V312.604C365.269 312.024 364.8 311.527 364.219 311.527C363.639 311.527 363.169 312.024 363.169 312.604V326.715C363.169 327.295 363.639 327.764 364.219 327.764Z" fill="#231F20"/>
<path d="M377.747 309.98H380.179C380.179 309.98 381.229 309.87 381.229 311.306V329.311H379.847C379.516 329.311 379.239 329.034 379.239 328.703V312.383C379.239 312.162 379.184 311.969 378.88 311.913C378.493 311.83 378.272 311.61 378.189 311.416C378.107 311.251 377.968 310.477 377.747 309.98Z" fill="#231F20"/>
<path d="M395.585 309.787H396.828C398.182 309.787 399.287 310.892 399.287 312.245V327.046C399.287 328.399 398.182 329.504 396.828 329.504H395.612C394.286 329.449 393.208 328.372 393.208 327.046V326.19C393.208 325.555 393.512 325.251 393.761 325.113C393.927 325.03 394.7 324.644 395.198 324.423V326.687C395.198 327.295 395.64 327.764 396.248 327.764C396.828 327.764 397.298 327.295 397.298 326.687V321.551H395.971C393.623 321.551 393.208 320.032 393.208 318.762V312.245C393.208 310.919 394.258 309.815 395.585 309.787ZM397.298 319.784V312.604C397.298 311.996 396.828 311.527 396.248 311.527C395.695 311.527 395.253 311.941 395.198 312.493V318.762C395.198 319.48 395.446 319.784 396.248 319.784H397.298Z" fill="#231F20"/>
</g>
<defs>
<clipPath id="clip0_862_92">
<rect width="560" height="446" fill="white"/>
</clipPath>
</defs>
</svg>
