<svg width="152" height="56" viewBox="0 0 152 56" fill="none" xmlns="http://www.w3.org/2000/svg">
<path d="M18 18.5926L1 39H35L18 18.5926Z" fill="#09663A"/>
<path d="M111 10.1481L88 39H134L111 10.1481Z" fill="#056837"/>
<path d="M134 18.5926L117 39H151L134 18.5926Z" fill="#0B9349"/>
<path d="M77 1L47 39H107L77 1Z" fill="#0A9446"/>
<path d="M49 10.1481L26 39H72L49 10.1481Z" fill="#38B746"/>
<path d="M11.7598 43.1751L7.62951 55.7286H5.11275L1 43.1751H3.85876L6.36675 51.5529L8.88351 43.1751H11.7598Z" fill="#002000"/>
<path d="M22.0661 50.7125V48.2C22.0661 47.8557 21.9988 47.5318 21.8644 47.2283C21.7358 46.919 21.5575 46.6505 21.3295 46.4229C21.1015 46.1953 20.8325 46.0173 20.5227 45.8889C20.2187 45.7547 19.8942 45.6875 19.5493 45.6875C19.2044 45.6875 18.877 45.7547 18.5672 45.8889C18.2632 46.0173 17.9972 46.1953 17.7692 46.4229C17.5412 46.6505 17.3599 46.919 17.2255 47.2283C17.0969 47.5318 17.0326 47.8557 17.0326 48.2V50.7125H22.0661ZM24.5828 55.7286H22.0661V53.2162H17.0326V55.7286H14.5246V48.2C14.5246 47.5055 14.6561 46.8548 14.9192 46.2478C15.1823 45.635 15.5389 45.101 15.989 44.6458C16.445 44.1906 16.977 43.8316 17.585 43.569C18.1989 43.3064 18.8536 43.1751 19.5493 43.1751C20.245 43.1751 20.8968 43.3064 21.5048 43.569C22.1187 43.8316 22.6536 44.1906 23.1096 44.6458C23.5656 45.101 23.9251 45.635 24.1882 46.2478C24.4513 46.8548 24.5828 47.5055 24.5828 48.2V55.7286Z" fill="#002000"/>
<path d="M37.5462 55.7286H28.7419V43.1751H31.2586V53.2162H37.5462V55.7286Z" fill="#002000"/>
<path d="M49.4572 55.7286H40.8371V43.1751H49.4572V45.6875H43.3538V48.2H47.4841V50.7125H43.3538V53.2162H49.4572V55.7286Z" fill="#002000"/>
<path d="M63.2536 55.7286H60.5615L55.7121 47.4646V55.7286H53.1953V43.1751H55.8875L60.7368 51.4478V43.1751H63.2536V55.7286Z" fill="#002000"/>
<path d="M77.6112 54.4418C77.0266 54.9437 76.3718 55.3288 75.6469 55.5973C74.922 55.8658 74.1708 56 73.3932 56C72.7969 56 72.2211 55.9212 71.6657 55.7636C71.1162 55.6119 70.5988 55.396 70.1136 55.1158C69.6342 54.8299 69.1957 54.4884 68.7982 54.0916C68.4007 53.6947 68.0586 53.257 67.7722 52.7785C67.4916 52.2941 67.2723 51.7776 67.1145 51.229C66.9625 50.6745 66.8865 50.0997 66.8865 49.5044C66.8865 48.9091 66.9625 48.3342 67.1145 47.7798C67.2723 47.2254 67.4916 46.7089 67.7722 46.2303C68.0586 45.7459 68.4007 45.3053 68.7982 44.9084C69.1957 44.5116 69.6342 44.1731 70.1136 43.8929C70.5988 43.607 71.1162 43.3881 71.6657 43.2364C72.2211 43.0788 72.7969 43 73.3932 43C74.1708 43 74.922 43.1342 75.6469 43.4027C76.3718 43.6653 77.0266 44.0505 77.6112 44.5582L76.2783 46.7468C75.91 46.3499 75.4745 46.0465 74.9717 45.8364C74.4689 45.6204 73.9428 45.5125 73.3932 45.5125C72.8379 45.5125 72.3176 45.6175 71.8323 45.8276C71.3471 46.0377 70.9233 46.3237 70.5608 46.6855C70.1983 47.0415 69.9119 47.4646 69.7014 47.9549C69.491 48.4393 69.3857 48.9558 69.3857 49.5044C69.3857 50.053 69.491 50.5695 69.7014 51.0539C69.9119 51.5324 70.1983 51.9526 70.5608 52.3145C70.9233 52.6763 71.3471 52.9623 71.8323 53.1724C72.3176 53.3825 72.8379 53.4875 73.3932 53.4875C73.9428 53.4875 74.4689 53.3825 74.9717 53.1724C75.4745 52.9565 75.91 52.6501 76.2783 52.2532L77.6112 54.4418Z" fill="#002000"/>
<path d="M83.568 55.7286H81.0512V43.1751H83.568V55.7286Z" fill="#002000"/>
<path d="M95.2861 50.7125V48.2C95.2861 47.8557 95.2188 47.5318 95.0844 47.2283C94.9558 46.919 94.7775 46.6505 94.5495 46.4229C94.3215 46.1953 94.0525 46.0173 93.7427 45.8889C93.4387 45.7547 93.1142 45.6875 92.7693 45.6875C92.4244 45.6875 92.097 45.7547 91.7872 45.8889C91.4832 46.0173 91.2172 46.1953 90.9892 46.4229C90.7612 46.6505 90.5799 46.919 90.4455 47.2283C90.3169 47.5318 90.2526 47.8557 90.2526 48.2V50.7125H95.2861ZM97.8028 55.7286H95.2861V53.2162H90.2526V55.7286H87.7446V48.2C87.7446 47.5055 87.8761 46.8548 88.1392 46.2478C88.4023 45.635 88.7589 45.101 89.209 44.6458C89.665 44.1906 90.197 43.8316 90.805 43.569C91.4189 43.3064 92.0736 43.1751 92.7693 43.1751C93.465 43.1751 94.1169 43.3064 94.7248 43.569C95.3387 43.8316 95.8736 44.1906 96.3296 44.6458C96.7856 45.101 97.1451 45.635 97.4082 46.2478C97.6713 46.8548 97.8028 47.5055 97.8028 48.2V55.7286Z" fill="#002000"/>
<path d="M111.488 55.7286H108.971V43.1751H111.488V48.2H116.512V43.1751H119.029V55.7286H116.512V50.7125H111.488V55.7286Z" fill="#002000"/>
<path d="M125.863 55.7286H123.346V43.1751H125.863V55.7286Z" fill="#002000"/>
<path d="M132.697 55.7286H130.18V43.1751H132.697V49.4519L137.379 43.1751H140.238L136.266 48.4714L140.238 55.7286H137.379L134.617 50.6512L132.697 53.2162V55.7286Z" fill="#002000"/>
<path d="M152 55.7286H143.38V43.1751H152V45.6875H145.897V48.2H150.027V50.7125H145.897V53.2162H152V55.7286Z" fill="#002000"/>
</svg>
