<svg width="578" height="58" viewBox="0 0 578 58" fill="none" xmlns="http://www.w3.org/2000/svg">
<path d="M23.144 0.568625L14.4852 57.4314H11.572C8.65877 57.4314 8.17323 53.9384 8.09231 53.451L0 0.568625H4.45077C4.85538 0.568625 5.82646 0.893556 6.15015 2.7619L11.572 38.423L17.3175 0.568625H23.144Z" fill="black"/>
<path d="M69.3498 57.4314H62.9569L57.8587 18.2773L52.7606 57.4314H46.3677L54.9455 0.568625H58.1015C60.5292 0.568625 60.9338 2.11204 61.1766 3.65546L69.3498 57.4314Z" fill="black"/>
<path d="M103.384 51.6639H116.493C115.846 53.1261 114.875 55.4006 114.632 55.888C114.227 56.6191 113.337 57.4314 111.476 57.4314H97.5572V0.568625H101.603C102.574 0.649856 103.384 1.38095 103.384 2.35574V51.6639Z" fill="black"/>
<path d="M148.523 51.6639H160.661C160.014 53.1261 159.043 55.4006 158.8 55.888C158.396 56.6191 157.505 57.4314 155.644 57.4314H142.696V2.19328C142.777 1.29972 143.506 0.568625 144.477 0.568625H159.609L157.667 4.79272C157.344 5.52381 156.453 6.41737 154.592 6.41737H149.899C149.089 6.41737 148.523 6.98599 148.523 7.79832V24.6947H157.263C156.615 26.1569 155.644 28.5126 155.401 29C154.997 29.7311 154.188 30.5434 152.326 30.5434H149.899C149.17 30.5434 148.523 31.1933 148.523 31.9244V51.6639Z" fill="black"/>
<path d="M207.08 0.568625V57.4314H204.409C201.253 57.4314 200.768 54.9132 200.525 53.7759L194.294 25.6695V57.4314H188.467V0.568625H191.138C194.375 0.568625 194.941 2.11204 195.265 3.7367L201.253 33.3053V0.568625H207.08Z" fill="black"/>
<path d="M255.359 37.042V50.7703C255.359 54.6695 252.284 57.8375 248.4 58H244.839C240.793 58 237.556 54.7507 237.556 50.7703V7.22969C237.556 3.2493 240.793 0 244.839 0H248.4C252.284 0.0812314 255.359 3.33053 255.359 7.22969V15.9216C255.359 17.7899 254.55 18.6835 253.822 19.0084L249.614 20.958V8.20448C249.614 6.4986 248.238 5.11764 246.458 5.11764C244.758 5.11764 243.382 6.4986 243.382 8.20448V49.7143C243.382 51.5014 244.758 52.8824 246.458 52.8824C248.238 52.8824 249.614 51.5014 249.614 49.7143V42.0784C249.614 40.2101 250.423 39.3165 251.151 38.9104C251.637 38.6667 253.902 37.6919 255.359 37.042Z" fill="black"/>
<path d="M287.859 0.568625H291.338C293.038 0.568625 293.685 1.86835 293.685 2.84313V57.4314H289.558C288.182 57.4314 287.939 56.6191 287.859 56.2129V0.568625Z" fill="black"/>
<path d="M345.152 57.4314H338.759L333.661 18.2773L328.563 57.4314H322.17L330.748 0.568625H333.904C336.331 0.568625 336.736 2.11204 336.979 3.65546L345.152 57.4314Z" fill="black"/>
<path d="M432.968 0.568625H436.448C438.228 0.568625 438.795 1.86835 438.795 2.84313V57.4314H432.968V32.6555C432.887 31.9244 432.321 31.3557 431.592 31.3557H425.28V57.4314H419.454V2.84313C419.454 1.86835 420.02 0.568625 421.801 0.568625H425.28V23.5574C425.28 25.1821 425.928 25.5882 427.304 25.5882H432.968V0.568625Z" fill="black"/>
<path d="M470.647 0.568625H474.126C475.826 0.568625 476.473 1.86835 476.473 2.84313V57.4314H472.346C470.97 57.4314 470.728 56.6191 470.647 56.2129V0.568625Z" fill="black"/>
<path d="M530.044 57.4314H523.975L516.206 32.0056V57.4314H510.461V2.7619C510.461 0.974787 511.675 0.649856 512.322 0.568625H516.206V21.2829L523.328 0.731093H529.397L520.253 26.3193L530.044 57.4314Z" fill="black"/>
<path d="M565.862 51.6639H578C577.353 53.1261 576.382 55.4006 576.139 55.888C575.734 56.6191 574.844 57.4314 572.983 57.4314H560.035V2.19328C560.116 1.29972 560.844 0.568625 561.815 0.568625H576.948L575.006 4.79272C574.682 5.52381 573.792 6.41737 571.931 6.41737H567.237C566.428 6.41737 565.862 6.98599 565.862 7.79832V24.6947H574.601C573.954 26.1569 572.983 28.5126 572.74 29C572.335 29.7311 571.526 30.5434 569.665 30.5434H567.237C566.509 30.5434 565.862 31.1933 565.862 31.9244V51.6639Z" fill="black"/>
</svg>
