<svg width="163" height="170" viewBox="0 0 163 170" fill="none" xmlns="http://www.w3.org/2000/svg">
<path fill-rule="evenodd" clip-rule="evenodd" d="M84.1687 0.0123848C99.636 0.343631 113.018 9.35803 126.093 17.6335C139.254 25.9641 154.168 33.7963 160.226 48.1523C166.237 62.3957 161.035 78.3627 158.127 93.5475C155.348 108.062 152.705 122.807 143.687 134.511C134.365 146.611 120.98 154.392 106.83 160.131C91.4798 166.356 75.0798 172.602 58.9392 168.883C42.4426 165.081 29.1231 153.028 18.5612 139.791C8.27799 126.903 0.181457 111.507 0.00203382 95.0161C-0.168341 79.357 10.4031 66.3937 17.6114 52.4936C24.4318 39.3416 29.4444 24.9838 41.0753 15.8127C53.3396 6.14221 68.5575 -0.321942 84.1687 0.0123848Z" fill="white"/>
</svg>
