<svg width="1280" height="66" viewBox="0 0 1280 66" fill="none" xmlns="http://www.w3.org/2000/svg">
<path d="M0 29.0528L20 36.2853L40 35.4735L60 38.4803L80 35.5054L100 38.8752L120 30.9233L140 32.0832L160 42.1664L180 43.2246L200 51.7697L220 56.4902L240 52.3511L260 46.8517L280 42.2L300 42.9267L320 43.8654L340 36.8885L360 41.8067L380 50.5833L400 53.0584L420 46.5754L440 47.4351L460 45.0128L480 42.0641L500 44.2882L520 39.7964L540 38.6812L560 44.1075L580 40.6498L600 33.7683L620 28.3613L640 34.3361L660 37.3063L680 35.8746L700 27.8797L720 28.5185L740 28.3269L760 30.9165L780 27.4394L800 36.9249L820 39.7091L840 37.4633L860 31.6646L880 24.4594L900 20.0906L920 26.1188L940 16.6906L960 18.8158L980 10.7906L1000 15.4609L1020 7.89901L1040 9.05062L1060 6.18873L1080 0L1100 1.32523L1120 6.45266L1140 9.81275L1160 3.36183L1180 10.67L1200 10.2644L1220 11.287L1240 10.2805L1260 5.23491L1280 7.10927V66H0V29.0528Z" fill="#003029"/>
</svg>
