<svg width="1280" height="66" viewBox="0 0 1280 66" fill="none" xmlns="http://www.w3.org/2000/svg">
<path d="M0 36.9472L20 29.7147L40 30.5265L60 27.5197L80 30.4946L100 27.1248L120 35.0767L140 33.9168L160 23.8336L180 22.7754L200 14.2303L220 9.50985L240 13.6489L260 19.1483L280 23.8L300 23.0733L320 22.1346L340 29.1115L360 24.1933L380 15.4167L400 12.9416L420 19.4246L440 18.5649L460 20.9872L480 23.9359L500 21.7118L520 26.2036L540 27.3188L560 21.8925L580 25.3502L600 32.2317L620 37.6387L640 31.6639L660 28.6937L680 30.1254L700 38.1203L720 37.4815L740 37.6731L760 35.0835L780 38.5606L800 29.0751L820 26.2909L840 28.5367L860 34.3353L880 41.5406L900 45.9094L920 39.8812L940 49.3094L960 47.1842L980 55.2094L1000 50.5391L1020 58.101L1040 56.9494L1060 59.8113L1080 66L1100 64.6748L1120 59.5473L1140 56.1872L1160 62.6382L1180 55.33L1200 55.7356L1220 54.713L1240 55.7195L1260 60.7651L1280 58.8907V9.78263e-07H0V36.9472Z" fill="white"/>
</svg>
