<svg width="1280" height="94" viewBox="0 0 1280 94" fill="none" xmlns="http://www.w3.org/2000/svg">
<g clip-path="url(#clip0_891_88)">
<path d="M0 16.6901L20 9.7089L40 15.7973L60 25.6379L80 27.0033L100 27.7943L120 28.1884L140 25.6681L160 25.4697L180 26.4918L200 25.5573L220 20.6494L240 12.6808L260 8.22996L280 8.08889L300 15.6311L320 13.0298L340 12.8964L360 20.752L380 32.5455L400 31.1193L420 39.2817L440 35.9308L460 41.3054L480 34.4544L500 32.733L520 35.1399L540 30.0917L560 27.1493L580 30.8855L600 36.9894L620 40.2782L640 30.7486L660 38.326L680 33.3967L700 27.7706L720 20.9592L740 24.2697L760 30.0251L780 27.209L800 27.808L820 32.0463L840 36.0205L860 36.9798L880 28.2325L900 34.5737L920 30.0097L940 22.9264L960 28.0527L980 30.1635L1000 24.2181L1020 14.9116L1040 15.7407L1060 14.9909L1080 6.70042L1100 1.08031L1120 6.09056L1140 10.1329L1160 3.29093L1180 0L1200 4.08766L1220 5.96689L1240 8.46709L1260 12.9467L1280 7.57417V94H0V16.6901Z" fill="#EFEEEA"/>
</g>
<defs>
<clipPath id="clip0_891_88">
<rect width="1280" height="94" fill="white"/>
</clipPath>
</defs>
</svg>
