<svg width="482" height="105" viewBox="0 0 482 105" fill="none" xmlns="http://www.w3.org/2000/svg">
<g clip-path="url(#clip0_891_92)">
<path d="M121.536 52.3667L83.4086 58.6756L80.368 59.1791L77.1187 39.8082L75.4493 29.7673L64.6879 31.6037L71.0374 69.457L99.9831 64.6587L101.026 64.481C96.5251 79.9125 83.4981 92.1749 66.4765 94.9887C42.8371 98.8984 20.5093 83.0226 16.5743 59.5642C16.0676 56.6319 15.8887 53.6996 16.0079 50.8265L6.52832 52.3963C6.52832 55.2694 6.7668 58.1721 7.24376 61.1044C12.0432 89.6869 39.23 109.028 68.0266 104.26C90.2948 100.587 106.988 83.5557 111.162 62.7927L120.403 61.2525C121.029 58.3794 121.417 55.3879 121.536 52.3667Z" fill="#BE1622"/>
<path d="M111.43 43.8958C106.661 15.2836 79.444 -4.02808 50.6474 0.710991C28.8264 4.32453 12.3414 20.7928 7.78044 41.0227L0.983734 42.1482C0.447152 44.7843 0.119241 47.4797 0 50.2343L26.0839 45.9099L38.8426 43.8069V43.8365L44.1488 42.9479C47.7856 42.3556 49.7829 43.2441 50.2003 45.6729C50.6176 48.1313 49.0079 49.6419 45.371 50.2639L37.9781 51.4783L37.2925 47.302L26.6204 49.0791L29.3928 65.6066L29.4226 65.6362L31.241 75.8845L39.7369 74.6108L39.7667 74.6405L51.7206 72.656C56.7883 71.8266 60.5444 70.2864 62.9292 68.0354C65.314 65.7843 66.2381 63.0001 65.6717 59.6828C65.2842 57.4021 64.3601 55.5657 62.8398 54.1736C61.3492 52.7815 59.4414 51.8633 57.1162 51.4783C58.6067 50.3824 59.6799 49.0495 60.3357 47.4797C60.9915 45.9099 61.1704 44.2216 60.8723 42.4148C60.3655 39.3936 58.6961 37.2018 55.8642 35.8393C53.0322 34.4769 49.1867 34.1807 44.2979 35.01L34.5201 36.6391L18.0351 39.364C22.8644 24.4952 35.6529 12.766 52.2273 10.041C75.8668 6.1313 98.1946 22.0072 102.13 45.4656C102.517 47.7759 102.696 50.0565 102.726 52.3076L112.146 50.7378C112.056 48.4571 111.818 46.1764 111.43 43.8958ZM54.5525 60.3048C54.9699 62.852 53.3005 64.4515 49.5444 65.0735L40.512 66.5544L39.2301 58.8831L48.2626 57.4021C52.0187 56.7801 54.1352 57.7279 54.5525 60.3048Z" fill="black"/>
<path d="M140.734 41.3188H128.184V32.2257H164.731V41.3188H152.24V72.7744H140.704V41.3188H140.734Z" fill="black"/>
<path d="M193.498 58.2314V72.7744H181.961V58.0536L166.4 32.2257H178.563L188.251 48.3385L197.94 32.2257H209.148L193.498 58.2314Z" fill="black"/>
<path d="M229.717 61.993H223.427V72.7744H211.891V32.2257H230.552C234.248 32.2257 237.438 32.8477 240.18 34.0621C242.893 35.2765 245.01 37.024 246.47 39.2751C247.961 41.5261 248.676 44.1919 248.676 47.2426C248.676 50.1749 247.991 52.7518 246.619 54.914C245.248 57.1058 243.281 58.7941 240.687 60.0381L249.481 72.7744H237.11L229.717 61.993ZM235.172 42.8294C233.98 41.7927 232.191 41.2596 229.807 41.2596H223.397V53.1368H229.807C232.191 53.1368 233.98 52.6333 235.172 51.5967C236.365 50.56 236.991 49.1086 236.991 47.213C236.991 45.347 236.395 43.866 235.172 42.8294Z" fill="black"/>
<path d="M287.787 63.9182V72.7744H254.996V32.2257H287.012V41.0818H266.413V47.9239H284.538V56.5134H266.413V63.9182H287.787Z" fill="black"/>
<path d="M315.898 72.3597C312.798 71.56 310.264 70.4641 308.326 69.1016L312.112 60.6305C313.93 61.8153 316.047 62.7927 318.462 63.5332C320.876 64.2737 323.231 64.6291 325.586 64.6291C330.028 64.6291 332.234 63.5332 332.234 61.3414C332.234 60.1862 331.608 59.3273 330.326 58.7645C329.074 58.2017 327.017 57.6093 324.245 56.9873C321.174 56.3357 318.611 55.6249 316.554 54.8844C314.497 54.1439 312.738 52.9295 311.248 51.2708C309.757 49.6122 309.042 47.3611 309.042 44.5473C309.042 42.0889 309.727 39.8378 311.069 37.8533C312.44 35.8689 314.467 34.299 317.15 33.1439C319.863 31.9887 323.172 31.3964 327.107 31.3964C329.789 31.3964 332.443 31.6926 335.036 32.2849C337.63 32.8773 339.925 33.7659 341.922 34.921L338.375 43.4514C334.499 41.378 330.714 40.3117 327.077 40.3117C324.781 40.3117 323.112 40.6375 322.069 41.3188C321.025 42 320.489 42.8886 320.489 43.9549C320.489 45.0508 321.115 45.8505 322.367 46.3837C323.619 46.9168 325.616 47.4796 328.359 48.072C331.459 48.7236 334.052 49.4344 336.079 50.1749C338.106 50.9154 339.895 52.1298 341.386 53.7588C342.876 55.3879 343.621 57.639 343.621 60.4528C343.621 62.8816 342.936 65.0734 341.594 67.0579C340.223 69.0423 338.196 70.6122 335.483 71.7673C332.77 72.9521 329.462 73.5445 325.556 73.5445C322.188 73.5741 318.998 73.189 315.898 72.3597Z" fill="black"/>
<path d="M387.711 32.2257V72.7744H376.174V56.9577H360.434V72.7744H348.898V32.2257H360.434V47.45H376.174V32.2257H387.711Z" fill="black"/>
<path d="M404.852 70.8491C401.423 69.0423 398.711 66.5247 396.743 63.3258C394.776 60.127 393.792 56.5134 393.792 52.4852C393.792 48.457 394.776 44.8435 396.743 41.6446C398.711 38.4457 401.394 35.9281 404.852 34.1213C408.28 32.3146 412.155 31.3964 416.477 31.3964C420.8 31.3964 424.675 32.3146 428.103 34.1213C431.532 35.9281 434.244 38.4457 436.212 41.6446C438.179 44.8435 439.163 48.457 439.163 52.4852C439.163 56.5134 438.179 60.127 436.212 63.3258C434.244 66.5247 431.561 69.0423 428.103 70.8491C424.675 72.6559 420.8 73.5741 416.477 73.5741C412.155 73.5741 408.28 72.6855 404.852 70.8491ZM422.082 62.6446C423.751 61.6672 425.063 60.3047 426.047 58.5572C427.03 56.8096 427.507 54.7955 427.507 52.5148C427.507 50.2342 427.03 48.2201 426.047 46.4725C425.063 44.725 423.751 43.3625 422.082 42.3851C420.412 41.4076 418.534 40.9337 416.477 40.9337C414.421 40.9337 412.543 41.4076 410.873 42.3851C409.204 43.3625 407.892 44.725 406.908 46.4725C405.925 48.2201 405.448 50.2342 405.448 52.5148C405.448 54.7955 405.925 56.8096 406.908 58.5572C407.892 60.3047 409.204 61.6672 410.873 62.6446C412.543 63.622 414.421 64.0959 416.477 64.0959C418.534 64.0959 420.412 63.5924 422.082 62.6446Z" fill="black"/>
<path d="M473.504 34.0325C476.217 35.2469 478.333 36.9944 479.794 39.2455C481.285 41.4965 482 44.1622 482 47.213C482 50.2638 481.255 52.8999 479.794 55.151C478.304 57.402 476.217 59.1199 473.504 60.3343C470.791 61.5487 467.572 62.1707 463.875 62.1707H456.751V72.7744H445.214V32.2257H463.875C467.572 32.2257 470.791 32.8181 473.504 34.0325ZM468.556 51.5967C469.748 50.56 470.374 49.1086 470.374 47.213C470.374 45.3174 469.778 43.866 468.556 42.7998C467.363 41.7631 465.575 41.2299 463.19 41.2299H456.781V53.1072H463.19C465.545 53.1369 467.333 52.6333 468.556 51.5967Z" fill="black"/>
</g>
<defs>
<clipPath id="clip0_891_92">
<rect width="482" height="105" fill="white"/>
</clipPath>
</defs>
</svg>
