<svg width="308" height="185" viewBox="0 0 308 185" fill="none" xmlns="http://www.w3.org/2000/svg">
<g clip-path="url(#clip0_892_107)">
<path d="M306.988 142.755C304.155 140.119 299.432 141.471 296.193 142.417C291.673 143.769 287.152 144.107 282.429 143.634C268.126 142.079 253.687 136.807 240.396 131.399C210.911 119.3 154.641 83.3413 154.641 83.3413C235.335 13.1806 276.02 7.02966 287.355 8.24632C298.69 9.39539 285.196 25.0768 285.196 25.0768C284.791 30.011 290.458 27.8481 292.482 25.8203C293.764 25.5499 310.497 4.73152 287.962 0.338026C242.892 -5.94805 149.109 80.6376 149.109 80.6376C83.798 55.4257 16.5305 78.0015 4.1835 96.319C-8.16348 114.637 7.48953 134.711 44.3281 134.914C95.1329 135.252 149.986 87.3968 149.986 87.3968C172.791 103.146 199.306 119.571 223.865 132.481C242.217 142.079 261.649 150.934 282.632 151.474C288.839 151.677 295.788 151.677 301.726 149.649C304.087 148.906 310.429 145.999 306.988 142.755ZM82.9209 118.422C73.2727 121.463 49.5233 125.249 33.7353 120.179C31.3064 119.368 28.8775 118.422 26.651 117.137C24.2895 115.786 22.063 114.163 20.4437 112.068C17.6775 108.553 16.8004 103.957 18.8919 99.9014C24.6269 84.8283 51.4799 76.5821 88.116 76.5145C124.752 76.4469 144.521 84.8283 144.588 84.8959C144.588 84.8959 126.844 101.591 82.9209 118.422Z" fill="black"/>
<path d="M15.8555 171.617H20.241V181.012H26.3808V184.73H15.8555V171.617Z" fill="black"/>
<path d="M40.4819 171.617H44.8675V184.73H40.4819V171.617Z" fill="black"/>
<path d="M59.5083 171.617H63.624L68.2794 177.43V171.617H72.5975V184.73H68.6842L63.8264 178.646V184.73H59.5083V171.617Z" fill="black"/>
<path d="M91.759 171.549H96.0771L101.61 184.73H96.8867L96.212 182.972H91.6241L90.9494 184.73H86.2939L91.759 171.549ZM95.065 179.863L93.8506 176.686L92.6361 179.863H95.065Z" fill="black"/>
<path d="M124.617 185C123.74 185 122.863 184.865 122.053 184.527C121.244 184.189 120.501 183.716 119.894 183.107C119.287 182.499 118.747 181.756 118.41 180.944C118.073 180.133 117.87 179.187 117.87 178.173V178.106C117.87 177.159 118.073 176.213 118.41 175.402C118.747 174.591 119.287 173.847 119.894 173.239C120.501 172.631 121.244 172.157 122.121 171.819C122.998 171.482 123.875 171.279 124.82 171.279C125.562 171.279 126.236 171.346 126.844 171.549C127.451 171.684 127.991 171.955 128.463 172.225C128.935 172.495 129.407 172.901 129.745 173.307C130.15 173.712 130.42 174.185 130.757 174.658L127.113 176.754C126.844 176.281 126.574 175.875 126.169 175.605C125.832 175.334 125.292 175.132 124.752 175.132C124.347 175.132 124.01 175.199 123.74 175.334C123.47 175.469 123.2 175.672 122.998 175.943C122.795 176.213 122.593 176.483 122.526 176.889C122.391 177.227 122.323 177.632 122.323 177.97V178.038C122.323 178.444 122.391 178.849 122.526 179.187C122.66 179.525 122.795 179.863 122.998 180.133C123.2 180.404 123.47 180.606 123.807 180.742C124.077 180.877 124.415 180.944 124.82 180.944C125.427 180.944 125.967 180.809 126.304 180.471C126.709 180.133 126.979 179.795 127.248 179.255L130.892 181.282C130.622 181.756 130.285 182.229 129.947 182.634C129.542 183.04 129.138 183.445 128.598 183.783C128.058 184.121 127.518 184.324 126.844 184.527C126.169 184.932 125.427 185 124.617 185Z" fill="black"/>
<path d="M149.311 171.549H153.629L159.162 184.73H154.439L153.764 182.972H149.176L148.502 184.73H143.846L149.311 171.549ZM152.685 179.863L151.47 176.686L150.256 179.863H152.685Z" fill="black"/>
<path d="M172.791 171.617H179.2C180.347 171.617 181.359 171.752 182.101 172.022C182.844 172.293 183.451 172.631 183.923 173.104C184.328 173.509 184.598 173.982 184.8 174.456C185.003 174.929 185.07 175.537 185.07 176.213V176.281C185.07 177.227 184.868 178.038 184.395 178.714C183.923 179.39 183.316 179.931 182.506 180.269L185.542 184.73H180.55L178.053 181.012H178.121H177.244V184.73H172.858V171.617H172.791ZM179.065 177.835C179.605 177.835 180.01 177.7 180.28 177.497C180.55 177.294 180.752 176.956 180.752 176.551V176.483C180.752 176.078 180.617 175.74 180.28 175.537C180.01 175.334 179.605 175.199 179.065 175.199H177.176V177.768H179.065V177.835Z" fill="black"/>
<path d="M199.306 171.617H205.176C206.053 171.617 206.863 171.684 207.538 171.887C208.28 172.09 208.887 172.36 209.359 172.766C209.899 173.171 210.236 173.644 210.574 174.253C210.844 174.861 210.979 175.537 210.979 176.281V176.348C210.979 177.159 210.844 177.835 210.574 178.444C210.304 179.052 209.899 179.593 209.359 179.998C208.819 180.404 208.212 180.742 207.47 180.944C206.728 181.147 205.918 181.282 205.041 181.282H203.624V184.865H199.239V171.617H199.306ZM204.839 178.038C205.379 178.038 205.851 177.903 206.188 177.7C206.526 177.497 206.728 177.092 206.728 176.619V176.551C206.728 176.078 206.593 175.74 206.256 175.469C205.918 175.199 205.446 175.132 204.906 175.132H203.692V178.038H204.839Z" fill="black"/>
<path d="M225.08 171.617H229.465V184.73H225.08V171.617Z" fill="black"/>
<path d="M250.583 185C249.706 185 248.829 184.865 248.02 184.527C247.21 184.189 246.468 183.716 245.861 183.107C245.253 182.499 244.714 181.756 244.376 180.944C244.039 180.133 243.836 179.187 243.836 178.173V178.106C243.836 177.159 244.039 176.213 244.376 175.402C244.714 174.591 245.253 173.847 245.861 173.239C246.468 172.631 247.21 172.157 248.087 171.819C248.964 171.482 249.841 171.279 250.786 171.279C251.528 171.279 252.203 171.346 252.81 171.549C253.417 171.684 253.957 171.955 254.429 172.225C254.901 172.495 255.374 172.901 255.711 173.307C256.116 173.712 256.386 174.185 256.723 174.658L253.08 176.754C252.81 176.281 252.54 175.875 252.135 175.605C251.798 175.334 251.258 175.132 250.718 175.132C250.314 175.132 249.976 175.199 249.706 175.334C249.436 175.469 249.167 175.672 248.964 175.943C248.762 176.213 248.559 176.483 248.492 176.889C248.424 177.294 248.289 177.632 248.289 177.97V178.038C248.289 178.444 248.357 178.849 248.492 179.187C248.627 179.525 248.762 179.863 248.964 180.133C249.167 180.404 249.436 180.606 249.774 180.742C250.111 180.877 250.381 180.944 250.786 180.944C251.393 180.944 251.933 180.809 252.27 180.471C252.608 180.133 252.945 179.795 253.215 179.255L256.858 181.282C256.588 181.756 256.251 182.229 255.914 182.634C255.576 183.04 255.104 183.445 254.564 183.783C254.092 184.121 253.485 184.324 252.81 184.527C252.135 184.73 251.393 185 250.583 185Z" fill="black"/>
<path d="M277.571 185C276.559 185 275.615 184.797 274.738 184.459C273.86 184.121 273.118 183.648 272.444 183.04C271.769 182.431 271.297 181.688 270.959 180.877C270.622 180.066 270.419 179.187 270.419 178.173V178.106C270.419 177.159 270.622 176.281 270.959 175.402C271.297 174.523 271.836 173.847 272.444 173.239C273.051 172.631 273.86 172.157 274.738 171.752C275.615 171.414 276.559 171.211 277.571 171.211C278.583 171.211 279.528 171.414 280.405 171.752C281.282 172.09 282.024 172.563 282.699 173.171C283.374 173.78 283.846 174.523 284.183 175.334C284.521 176.145 284.723 177.024 284.723 178.038V178.106C284.723 179.052 284.521 179.931 284.183 180.809C283.846 181.62 283.306 182.364 282.699 182.972C282.092 183.581 281.282 184.054 280.405 184.459C279.528 184.865 278.583 185 277.571 185ZM277.639 181.147C278.044 181.147 278.448 181.08 278.786 180.877C279.123 180.674 279.393 180.471 279.663 180.201C279.933 179.931 280.068 179.593 280.203 179.255C280.338 178.917 280.405 178.511 280.405 178.173V178.106C280.405 177.7 280.338 177.362 280.203 177.024C280.068 176.686 279.865 176.348 279.663 176.078C279.393 175.807 279.123 175.605 278.786 175.402C278.448 175.267 278.044 175.132 277.639 175.132C277.234 175.132 276.829 175.199 276.492 175.402C276.154 175.605 275.885 175.807 275.615 176.078C275.345 176.348 275.21 176.686 275.075 177.024C274.94 177.362 274.872 177.768 274.872 178.106V178.173C274.872 178.579 274.94 178.917 275.075 179.322C275.21 179.66 275.412 179.998 275.615 180.269C275.885 180.539 276.154 180.742 276.492 180.944C276.829 181.147 277.166 181.147 277.639 181.147Z" fill="black"/>
</g>
<defs>
<clipPath id="clip0_892_107">
<rect width="308" height="185" fill="white"/>
</clipPath>
</defs>
</svg>
