<svg width="368" height="118" viewBox="0 0 368 118" fill="none" xmlns="http://www.w3.org/2000/svg">
<g clip-path="url(#clip0_892_125)">
<path d="M293.241 31.3415L288.774 35.5111C288.006 36.2061 286.75 36.1366 286.052 35.3721L280.677 29.1177C280.049 28.3533 280.118 27.2414 280.816 26.5465L294.079 14.4546C294.428 14.1071 294.847 13.9681 295.335 13.9681H304.479C305.527 13.9681 306.364 14.8021 306.364 15.8445V59.6254C306.364 60.6678 305.527 61.5017 304.479 61.5017H295.056C294.009 61.5017 293.171 60.6678 293.171 59.6254V31.3415H293.241Z" fill="black"/>
<path d="M333.169 62.4051C329.748 62.4051 326.677 61.7102 323.955 60.3898C321.302 59.0695 318.999 57.2626 317.114 55.0388C315.229 52.815 313.833 50.1743 312.856 47.2556C311.879 44.2673 311.39 41.2096 311.39 37.9434V37.8044C311.39 34.5382 311.879 31.4805 312.856 28.4923C313.833 25.5041 315.299 22.8633 317.184 20.6395C319.068 18.4157 321.372 16.6089 324.024 15.219C326.747 13.8987 329.818 13.2037 333.238 13.2037C336.659 13.2037 339.66 13.8987 342.383 15.219C345.105 16.5394 347.339 18.3463 349.223 20.57C351.108 22.7938 352.504 25.4346 353.481 28.3533C354.458 31.3415 354.947 34.3993 354.947 37.6655V37.8044C354.947 41.0706 354.458 44.1284 353.481 47.1166C352.504 50.1048 351.038 52.7455 349.153 54.9693C347.269 57.1931 344.965 59 342.243 60.3898C339.66 61.7102 336.589 62.4051 333.169 62.4051ZM333.657 51.7726C336.868 51.7726 339.381 50.5218 341.266 48.02C343.15 45.5182 344.058 42.1825 344.058 38.0129V37.8739C344.058 35.7891 343.779 33.9128 343.29 32.1755C342.801 30.4381 342.103 28.9788 341.126 27.7974C340.219 26.616 339.102 25.6431 337.776 24.9481C336.449 24.2532 335.053 23.9057 333.448 23.9057C330.237 23.9057 327.724 25.1566 325.839 27.6584C323.955 30.1602 323.047 33.4958 323.047 37.6655V37.8044C323.047 39.8892 323.326 41.7656 323.815 43.5029C324.304 45.2402 325.002 46.6996 325.979 47.881C326.886 49.0624 328.003 50.0353 329.329 50.7302C330.656 51.4252 332.052 51.7726 333.657 51.7726Z" fill="black"/>
<path d="M16.683 13.6207H28.8286C29.9455 13.6207 30.7831 14.5241 30.7831 15.5665V47.9505H51.5145C52.6314 47.9505 53.469 48.8539 53.469 49.8963V59.7644C53.469 60.8763 52.5616 61.7102 51.5145 61.7102H16.6132C15.4963 61.7102 14.6587 60.8068 14.6587 59.7644V15.636C14.7285 14.5241 15.6359 13.6207 16.683 13.6207Z" fill="black"/>
<path d="M82.2277 62.7527C78.5282 62.7527 75.038 62.1273 71.8271 60.8069C68.6162 59.556 65.8241 57.7492 63.4508 55.5254C61.0775 53.3016 59.2626 50.6608 57.8666 47.6031C56.5403 44.5454 55.8423 41.2792 55.8423 37.8045V37.6655C55.8423 34.1909 56.5403 30.9247 57.8666 27.8669C59.1928 24.8092 61.0775 22.1685 63.4508 19.8752C65.8241 17.5819 68.6162 15.8446 71.8271 14.5242C75.038 13.2038 78.5282 12.5784 82.2277 12.5784C85.9273 12.5784 89.4174 13.2038 92.6283 14.5242C95.8392 15.7751 98.6314 17.5819 101.005 19.8057C103.378 22.0295 105.193 24.6702 106.589 27.728C107.915 30.7857 108.613 34.0519 108.613 37.5265V37.6655C108.613 41.1402 107.915 44.4064 106.589 47.4641C105.263 50.5218 103.378 53.1626 101.005 55.4559C98.6314 57.7492 95.8392 59.4865 92.6283 60.8069C89.4174 62.0578 85.9971 62.7527 82.2277 62.7527ZM82.3673 48.5065C83.903 48.5065 85.2292 48.2285 86.4857 47.6031C87.7421 46.9777 88.7892 46.2132 89.6268 45.2403C90.5342 44.2674 91.1625 43.1555 91.6511 41.8351C92.1397 40.5843 92.3491 39.1944 92.3491 37.8045V37.6655C92.3491 36.2757 92.1397 34.8858 91.6511 33.5654C91.1625 32.245 90.4644 31.1331 89.6268 30.0907C88.7194 29.1178 87.6723 28.2839 86.4857 27.6585C85.2292 27.033 83.8332 26.755 82.2975 26.755C80.7619 26.755 79.4356 27.033 78.1792 27.6585C76.9227 28.2839 75.8757 29.0483 75.038 30.0212C74.1306 30.9942 73.5024 32.106 73.0138 33.4264C72.5251 34.6773 72.3157 36.0672 72.3157 37.4571V37.596C72.3157 38.9859 72.5251 40.3758 73.0138 41.6962C73.5024 43.0165 74.2004 44.1284 75.038 45.1708C75.9455 46.1437 76.9925 46.9777 78.1792 47.6031C79.4356 48.2285 80.8317 48.5065 82.3673 48.5065Z" fill="black"/>
<path d="M137.023 62.7527C133.673 62.7527 130.462 62.1272 127.46 60.9459C124.459 59.7645 121.806 58.0966 119.503 55.8728C117.199 53.649 115.384 51.0778 113.988 47.9506C112.662 44.8929 111.964 41.4877 111.964 37.8045V37.6655C111.964 34.1214 112.592 30.7857 113.918 27.728C115.245 24.6702 117.059 22.0295 119.363 19.7362C121.666 17.5124 124.389 15.7751 127.53 14.4547C130.671 13.2038 134.022 12.5784 137.581 12.5784C140.234 12.5784 142.677 12.8563 144.911 13.4818C147.144 14.1072 149.169 14.9411 150.984 16.053C152.798 17.1649 154.404 18.4853 155.8 20.0142C156.777 21.0566 157.615 22.1685 158.383 23.3499C159.011 24.2533 158.662 25.5737 157.685 26.1296L147.773 31.8976C146.865 32.384 145.748 32.1755 145.19 31.3416C144.492 30.2992 143.654 29.3958 142.677 28.6314C141.351 27.589 139.536 27.033 137.302 27.033C135.906 27.033 134.65 27.311 133.603 27.8669C132.486 28.4229 131.578 29.1873 130.741 30.1602C129.973 31.1331 129.345 32.245 128.926 33.4959C128.507 34.7468 128.298 36.1367 128.298 37.5265V37.6655C128.298 39.1944 128.507 40.6538 128.926 41.9741C129.345 43.2945 129.973 44.4064 130.811 45.3098C131.648 46.2827 132.556 46.9777 133.673 47.5336C134.789 48.0896 135.976 48.298 137.302 48.298C139.606 48.298 141.421 47.7421 142.817 46.6302C143.794 45.8658 144.701 44.8929 145.469 43.7115C146.028 42.8775 147.144 42.6691 148.052 43.1555L157.964 48.715C158.941 49.2709 159.29 50.5913 158.662 51.4947C157.894 52.6066 157.056 53.7185 156.149 54.7609C154.753 56.3593 153.147 57.6797 151.263 58.8611C149.378 60.0424 147.284 60.9459 144.911 61.6408C142.677 62.4052 140.025 62.7527 137.023 62.7527Z" fill="black"/>
<path d="M181.068 13.2733H194.401C195.169 13.2733 195.936 13.7598 196.216 14.4547L214.923 58.9306C215.481 60.2509 214.504 61.6408 213.108 61.6408H199.915C199.078 61.6408 198.38 61.1544 198.1 60.3899L196.076 55.1779H179.184L177.16 60.3899C176.88 61.1544 176.113 61.6408 175.275 61.6408H162.361C160.965 61.6408 159.988 60.1814 160.546 58.9306L179.254 14.4547C179.603 13.7598 180.301 13.2733 181.068 13.2733ZM192.028 43.8505L187.63 32.1756L183.232 43.8505H192.028Z" fill="black"/>
<path d="M220.088 13.6207H232.234C233.351 13.6207 234.188 14.5241 234.188 15.5665V47.9505H254.92C256.037 47.9505 256.874 48.8539 256.874 49.8963V59.7644C256.874 60.8763 255.967 61.7102 254.92 61.7102H220.018C218.902 61.7102 218.064 60.8068 218.064 59.7644V15.636C218.134 14.5241 218.971 13.6207 220.088 13.6207Z" fill="black"/>
<path d="M0 0V78.8751H216.109V117.931H367.93V78.8751V76.7208V0H0ZM2.16388 76.7208V2.1543H267.833V76.7208H216.109H2.16388ZM365.766 115.776H218.343V78.8751H365.766V115.776ZM269.997 76.7208V2.1543H365.766V76.7208H269.997Z" fill="black"/>
<path d="M231.885 90.828H245.706V95.2756H237.19V96.9434H245.147V100.835H237.19V102.572H245.775V107.02H231.815V90.828H231.885Z" fill="black"/>
<path d="M256.595 107.298C254.92 107.298 253.384 107.09 251.988 106.603C250.592 106.117 249.336 105.491 248.289 104.588L251.15 101.183C252.058 101.878 252.965 102.364 253.943 102.642C254.92 102.92 255.897 103.059 256.804 103.059C257.293 103.059 257.642 102.989 257.852 102.85C258.061 102.711 258.201 102.572 258.201 102.364V102.294C258.201 102.086 258.061 101.878 257.712 101.739C257.363 101.6 256.805 101.391 255.967 101.252C255.059 101.044 254.152 100.835 253.384 100.627C252.547 100.349 251.849 100.071 251.22 99.6537C250.592 99.2368 250.103 98.8198 249.754 98.1944C249.405 97.6384 249.196 96.874 249.196 96.0401V95.9706C249.196 95.2062 249.336 94.5112 249.615 93.8163C249.894 93.1213 250.383 92.5654 250.941 92.0789C251.499 91.5925 252.267 91.1755 253.105 90.8976C253.943 90.6196 254.92 90.4806 256.037 90.4806C257.642 90.4806 258.968 90.6891 260.155 91.0365C261.342 91.384 262.389 91.94 263.366 92.7044L260.713 96.3181C259.946 95.7621 259.108 95.3451 258.27 95.1367C257.433 94.8587 256.595 94.7892 255.827 94.7892C255.408 94.7892 255.129 94.8587 254.92 94.9977C254.71 95.1367 254.641 95.2756 254.641 95.4841V95.5536C254.641 95.6926 254.641 95.7621 254.71 95.8316C254.78 95.9011 254.85 96.0401 255.059 96.1096C255.199 96.1791 255.408 96.2486 255.688 96.3181C255.967 96.3875 256.316 96.457 256.735 96.5265C257.782 96.735 258.689 96.9435 259.527 97.2215C260.364 97.4994 261.132 97.8469 261.691 98.1944C262.319 98.6113 262.738 99.0978 263.087 99.6537C263.436 100.21 263.575 100.905 263.575 101.739V101.808C263.575 102.642 263.436 103.406 263.087 104.101C262.738 104.796 262.249 105.352 261.621 105.839C260.993 106.325 260.225 106.673 259.387 106.951C258.689 107.159 257.712 107.298 256.595 107.298Z" fill="black"/>
<path d="M271.463 95.4146H266.716V90.828H281.654V95.4146H276.908V107.02H271.463V95.4146Z" fill="black"/>
<path d="M293.032 107.298C291.845 107.298 290.728 107.159 289.751 106.881C288.774 106.603 287.936 106.117 287.238 105.561C286.54 104.935 285.982 104.171 285.633 103.198C285.284 102.225 285.074 101.113 285.074 99.7928V90.8976H290.589V99.7233C290.589 100.696 290.798 101.461 291.287 101.878C291.775 102.364 292.334 102.572 293.102 102.572C293.869 102.572 294.428 102.364 294.916 101.947C295.405 101.53 295.614 100.835 295.614 99.8622V90.8976H301.129V99.6538C301.129 101.044 300.919 102.225 300.57 103.198C300.152 104.171 299.663 104.935 298.965 105.561C298.267 106.186 297.429 106.603 296.382 106.881C295.335 107.159 294.288 107.298 293.032 107.298Z" fill="black"/>
<path d="M305.178 90.828H311.39C312.996 90.828 314.392 91.0365 315.648 91.384C316.835 91.7314 317.882 92.2874 318.65 92.9823C319.487 93.6772 320.046 94.5112 320.465 95.4841C320.883 96.457 321.093 97.5689 321.093 98.7503V98.8198C321.093 100.001 320.883 101.113 320.465 102.086C320.046 103.059 319.417 103.962 318.58 104.657C317.742 105.352 316.695 105.908 315.509 106.325C314.322 106.742 312.856 106.95 311.181 106.95H305.178V90.828ZM311.46 102.294C312.716 102.294 313.694 102.016 314.461 101.53C315.229 101.044 315.578 100.14 315.578 98.9587V98.8893C315.578 97.7079 315.229 96.8739 314.461 96.318C313.694 95.762 312.716 95.5536 311.46 95.5536H310.553V102.294H311.46Z" fill="black"/>
<path d="M324.862 90.828H330.306V107.02H324.862V90.828Z" fill="black"/>
<path d="M342.941 107.367C341.685 107.367 340.498 107.159 339.451 106.742C338.404 106.325 337.427 105.7 336.659 104.935C335.891 104.171 335.263 103.267 334.774 102.294C334.355 101.252 334.076 100.21 334.076 99.0283V98.9588C334.076 97.7774 334.286 96.6655 334.774 95.6926C335.263 94.6502 335.821 93.7468 336.659 92.9823C337.427 92.2179 338.404 91.5924 339.451 91.1755C340.498 90.7585 341.685 90.55 342.941 90.55C344.198 90.55 345.384 90.7585 346.431 91.1755C347.478 91.5924 348.456 92.2179 349.223 92.9823C349.991 93.7468 350.619 94.6502 351.108 95.6231C351.527 96.6655 351.806 97.7079 351.806 98.8893V98.9588C351.806 100.14 351.597 101.252 351.108 102.225C350.619 103.267 350.061 104.171 349.223 104.935C348.456 105.7 347.478 106.325 346.431 106.742C345.384 107.159 344.198 107.367 342.941 107.367ZM343.011 102.572C343.5 102.572 343.988 102.503 344.407 102.294C344.826 102.086 345.175 101.808 345.454 101.53C345.733 101.183 345.943 100.835 346.152 100.418C346.292 100.001 346.361 99.5147 346.361 99.0283V98.9588C346.361 98.4723 346.292 98.0553 346.152 97.5689C346.012 97.1519 345.733 96.735 345.454 96.3875C345.175 96.04 344.826 95.7621 344.407 95.5536C343.988 95.3451 343.5 95.2756 343.011 95.2756C342.522 95.2756 342.034 95.3451 341.615 95.5536C341.196 95.7621 340.847 96.04 340.568 96.318C340.289 96.6655 340.079 97.0129 339.87 97.4299C339.73 97.8469 339.66 98.3333 339.66 98.8198V98.8893C339.66 99.3757 339.73 99.7927 339.87 100.279C340.009 100.696 340.289 101.113 340.568 101.461C340.847 101.808 341.196 102.086 341.615 102.294C342.034 102.503 342.452 102.572 343.011 102.572Z" fill="black"/>
</g>
<defs>
<clipPath id="clip0_892_125">
<rect width="368" height="118" fill="white"/>
</clipPath>
</defs>
</svg>
