<svg width="80" height="80" viewBox="0 0 80 80" fill="none" xmlns="http://www.w3.org/2000/svg">
<g clip-path="url(#clip0_826_571)">
<path d="M79.8898 42.9995H65.6006C53.1188 42.9995 43.0006 53.1179 43.0006 65.5995V79.8887C62.7004 78.4279 78.429 62.6993 79.8898 42.9995Z" fill="#8C8C8C"/>
<path d="M37.0006 79.8887V65.5995C37.0006 53.1179 26.8822 42.9995 14.4005 42.9995H0.111328C1.572 62.6993 17.3007 78.4279 37.0006 79.8887Z" fill="#8C8C8C"/>
<path d="M79.8898 36.9996C78.429 17.2997 62.7004 1.57102 43.0006 0.110352V14.3995C43.0006 26.8812 53.1188 36.9996 65.6006 36.9996H79.8898Z" fill="#8C8C8C"/>
<path d="M37.0006 0.110352C17.3007 1.57102 1.572 17.2997 0.111328 36.9996H14.4005C26.8822 36.9996 37.0006 26.8812 37.0006 14.3995V0.110352Z" fill="#8C8C8C"/>
<path d="M27.166 39.9996C32.711 37.229 37.23 32.71 40.0004 27.165C42.771 32.71 47.2898 37.229 52.835 39.9996C47.2898 42.77 42.771 47.289 40.0004 52.834C37.23 47.289 32.711 42.77 27.166 39.9996Z" fill="#8C8C8C"/>
</g>
<defs>
<clipPath id="clip0_826_571">
<rect width="80" height="80" fill="white"/>
</clipPath>
</defs>
</svg>
