<svg width="127" height="80" viewBox="0 0 127 80" fill="none" xmlns="http://www.w3.org/2000/svg">
<g clip-path="url(#clip0_826_582)">
<path d="M118.884 9.83371C118.884 9.92698 118.884 10.0436 118.861 10.1135C118.742 11.023 118.742 11.9325 118.813 12.8653C118.861 13.0985 118.908 13.3317 119.099 13.5183C119.408 13.868 119.884 13.7981 120.074 13.3783C120.17 13.1685 120.17 12.9586 120.122 12.7487C119.884 11.8625 119.836 10.9297 119.813 10.0203C119.813 9.97362 119.813 9.90365 119.813 9.83371C120.074 9.81038 120.312 9.78705 120.526 9.78705C120.693 9.76374 120.836 9.74042 120.955 9.67045C121.312 9.48391 121.312 9.08747 120.931 8.90091C120.788 8.83094 120.598 8.80762 120.431 8.80762C119.836 8.83094 119.241 8.83094 118.646 8.83094C118.432 8.83094 118.218 8.85427 118.004 8.87758C117.885 8.90091 117.742 8.90091 117.647 8.97087C117.48 9.04082 117.385 9.15742 117.385 9.32065C117.409 9.48391 117.48 9.57718 117.647 9.64714C117.742 9.71711 117.861 9.74042 117.98 9.74042C118.265 9.76374 118.575 9.81038 118.884 9.83371ZM125.429 10.9064C125.429 10.9297 125.453 10.9531 125.453 10.9531C125.548 11.5827 125.643 12.189 125.715 12.7953C125.739 13.0052 125.762 13.1918 125.905 13.355C126.215 13.7514 126.691 13.7048 126.905 13.2851C127 13.0752 127.024 12.8653 126.976 12.6321C126.833 11.9325 126.762 11.2329 126.619 10.5566C126.524 10.1369 126.405 9.74042 126.286 9.36731C126.215 9.13411 126.048 8.97085 125.762 8.94754C125.477 8.90091 125.263 9.04082 125.144 9.25071C125.001 9.43725 124.882 9.62382 124.787 9.83371C124.62 10.2068 124.477 10.5799 124.287 10.9297C124.263 11.023 124.239 11.093 124.192 11.1629C124.168 11.1163 124.144 11.093 124.144 11.093C123.835 10.51 123.549 9.92698 123.24 9.36731C123.192 9.32065 123.168 9.27402 123.144 9.22738C123.002 9.01751 122.835 8.90091 122.573 8.90091C122.335 8.92422 122.145 9.06414 122.026 9.27402C121.978 9.36731 121.978 9.43725 121.954 9.53054C121.859 10.2768 121.74 11.023 121.645 11.7693C121.597 12.189 121.574 12.6088 121.574 13.0285C121.55 13.1218 121.574 13.2384 121.621 13.3317C121.669 13.5182 121.812 13.6349 122.002 13.6582C122.24 13.6815 122.407 13.6115 122.478 13.425C122.549 13.2851 122.573 13.1685 122.597 13.0519C122.692 12.6321 122.764 12.2357 122.835 11.8392C122.883 11.606 122.906 11.4195 122.978 11.1629C123.025 11.2562 123.073 11.3262 123.121 11.3961C123.335 11.676 123.549 11.9558 123.811 12.189C124.073 12.3756 124.287 12.3523 124.501 12.1424C124.549 12.0957 124.572 12.0724 124.62 12.0258C124.834 11.6993 125.096 11.3728 125.31 11.0463C125.358 10.9997 125.382 10.9531 125.429 10.9064Z" fill="#8C8C8C"/>
<path d="M70.5915 10.2917C70.426 10.7349 70.3945 11.0542 70.4708 11.3196C70.5552 11.6805 70.7742 11.7986 71.0714 11.7068C73.8668 11.0295 79.9968 12.9521 82.2662 13.4879C82.8015 13.6004 83.2369 12.9234 82.8717 12.3164C82.3386 11.7286 76.2114 9.21193 73.8735 9.07471C72.9571 9.02397 71.3188 8.79371 70.5915 10.2917Z" fill="#8C8C8C"/>
<path d="M94.5484 2.14499C94.8463 2.31348 95.0128 2.47421 95.095 2.65379C95.2175 2.88935 95.1529 3.05233 94.9472 3.1355C93.0993 4.01917 90.6404 7.82355 89.6478 9.13564C89.4072 9.43748 88.8523 9.26208 88.7684 8.76572C88.7857 8.20448 90.9653 4.07588 92.1818 2.95139C92.6599 2.51235 93.4497 1.65091 94.5484 2.14499Z" fill="#8C8C8C"/>
<path d="M79.8327 0.272356C80.1907 0.00803433 80.5626 -0.084592 80.7526 0.087184C83.5406 2.42345 85.0191 6.12314 85.9346 9.51013C85.969 9.58904 85.9712 9.70227 85.9436 9.8204C85.9322 9.92136 85.8569 10.028 85.7373 10.1105C85.6096 10.2017 85.4997 10.2294 85.448 10.1509C84.226 8.5224 77.247 2.18622 79.8327 0.272356Z" fill="#8C8C8C"/>
<path d="M20.7935 40.7776C21.4617 40.2901 22.1882 39.8843 22.9569 39.5694C23.7612 39.3441 24.6184 39.3814 25.3991 39.6759C26.1796 39.9705 26.8413 40.5059 27.2836 41.2016C27.6793 41.8954 27.834 42.6965 27.7248 43.4841C27.6156 44.2716 27.2482 45.003 26.6778 45.5683C26.2357 46.0265 25.7337 46.4256 25.1852 46.7554C22.7406 48.3028 20.2743 49.7654 17.8081 51.3128C17.3034 51.7001 16.7681 52.0476 16.2072 52.3516C15.354 52.7685 14.3789 52.8801 13.4505 52.6672C12.5222 52.4545 11.699 51.9303 11.1232 51.1857C10.6928 50.6585 10.3296 50.0819 10.0415 49.4686C7.70511 44.6568 5.28215 39.8661 3.03223 34.9694C1.99381 32.8497 1.1501 30.4119 0.328019 28.059C-0.0276508 27.3754 -0.0971052 26.5828 0.134445 25.8497C0.365996 25.1166 0.880282 24.501 1.56791 24.1337C2.25554 23.7665 3.06224 23.6766 3.81648 23.8832C4.57071 24.0897 5.21297 24.5765 5.60663 25.2397C6.81667 26.8154 7.88781 28.489 8.80843 30.2425C11.1449 34.4819 13.3732 38.7214 15.6231 42.8337C15.7541 43.061 15.8985 43.2803 16.0557 43.4908C17.7492 42.7932 19.3419 41.881 20.7935 40.7776Z" fill="#8C8C8C"/>
<path d="M44.9509 39.2985C39.6074 45.4245 30.651 43.877 26.1512 35.9916C22.9494 30.3954 22.387 21.1532 29.3531 15.3239C30.8406 14.1034 32.6193 13.2721 34.5234 12.9073C36.8581 12.5794 39.2388 12.9829 41.3252 14.0603C43.4116 15.1378 45.0971 16.8339 46.1409 18.9063C49.9483 25.6895 49.4075 34.3381 44.9509 39.2985ZM42.7875 25.0112C42.2198 23.3443 41.081 21.9212 39.5641 20.9835C38.7057 20.3841 37.6627 20.0926 36.6108 20.1583C35.5587 20.2239 34.5619 20.6426 33.7879 21.3439C30.6944 24.0361 30.0452 30.4166 32.2951 34.211C32.582 34.8297 33.0031 35.3795 33.5294 35.8221C34.0557 36.2646 34.6744 36.5892 35.342 36.7728C36.0097 36.9566 36.7102 36.9952 37.3947 36.8859C38.0793 36.7765 38.731 36.5219 39.3046 36.1399C40.9816 34.8659 42.2118 33.1117 42.8243 31.1212C43.437 29.1305 43.4015 27.0023 42.7227 25.0325L42.7875 25.0112Z" fill="#8C8C8C"/>
<path d="M66.7575 27.6824C66.2105 27.7977 65.6453 27.8046 65.0954 27.7026C64.5457 27.6006 64.0221 27.392 63.5558 27.0889C63.1478 26.8602 62.7965 26.5458 62.5273 26.1682C62.2582 25.7906 62.0779 25.3593 61.9993 24.9051C61.9206 24.4511 61.9458 23.9857 62.0726 23.5422C62.1996 23.0987 62.4255 22.6884 62.7338 22.3406C63.2708 21.6417 64.0332 21.1413 64.8971 20.9204C67.1528 20.2789 69.4749 19.8878 71.8199 19.7546C72.3351 19.6958 72.8571 19.7386 73.3551 19.8802C73.8533 20.022 74.3174 20.2597 74.7206 20.5797C75.1235 20.8995 75.4574 21.2951 75.7023 21.7431C75.947 22.1911 76.0982 22.6826 76.1466 23.1886C76.8226 25.674 76.8966 28.28 76.3629 30.7986C74.416 38.9384 67.7094 41.7364 60.1809 39.1291C58.0676 38.432 56.2147 37.1331 54.859 35.3984C53.0509 33.3093 51.7689 30.8335 51.1164 28.17C50.5877 25.7982 50.6455 23.3371 51.2854 20.9918C51.9252 18.6466 53.1282 16.4852 54.7941 14.6883C56.3751 12.7353 58.427 11.1982 60.7651 10.2156C62.2425 9.41768 63.9713 9.1908 65.611 9.57966C65.983 9.68053 66.3206 9.87707 66.5889 10.1489C66.8573 10.4208 67.0465 10.758 67.137 11.1256C67.2276 11.4933 67.216 11.8779 67.1037 12.2398C66.9912 12.6016 66.7822 12.9273 66.498 13.1833C65.9578 13.6624 65.3708 14.0884 64.7456 14.4551C62.8223 15.6552 61.1486 17.2017 59.8131 19.0126C58.9377 20.1844 58.3348 21.53 58.0471 22.9546C57.7592 24.3791 57.7935 25.8482 58.1474 27.2586C58.638 29.1815 59.7268 30.9075 61.2626 32.1975C66.022 36.4371 72.2092 32.3458 71.1276 26.5589C69.5484 26.9406 68.1637 27.3433 66.7575 27.6824Z" fill="#8C8C8C"/>
<path d="M95.8336 39.6376C88.8027 43.8773 80.7983 39.6376 79.0459 30.7347C77.7695 24.3754 80.1925 15.4724 88.673 12.0808C90.4773 11.3747 92.4344 11.1268 94.3626 11.36C96.6793 11.7756 98.8045 12.8931 100.438 14.555C102.072 16.217 103.133 18.3394 103.47 20.6234C104.898 28.1909 101.653 36.2673 95.8336 39.6376ZM98.2784 25.3716C98.2762 23.6107 97.6405 21.9067 96.4828 20.5598C95.8639 19.7267 94.9693 19.1298 93.9515 18.8707C92.9335 18.6118 91.8556 18.7067 90.9011 19.1396C87.0937 20.7505 84.4111 26.6011 85.3846 30.9044C85.459 31.5796 85.6829 32.2309 86.0409 32.8125C86.3988 33.3942 86.8821 33.8922 87.4571 34.2718C88.0319 34.6513 88.6845 34.9033 89.369 35.01C90.0537 35.1165 90.7538 35.0754 91.4204 34.8894C93.433 34.2005 95.1756 32.9131 96.405 31.2067C97.6345 29.5004 98.2895 27.4604 98.2784 25.3716Z" fill="#8C8C8C"/>
<path d="M110.581 41.4182C110.474 42.1941 110.058 42.8968 109.423 43.3719C108.788 43.8468 107.987 44.0553 107.195 43.9513C106.403 43.8473 105.686 43.4393 105.201 42.8171C104.716 42.1951 104.504 41.4097 104.61 40.6339C104.716 39.8581 105.132 39.1553 105.767 38.6802C106.402 38.2052 107.204 37.9968 107.995 38.1008C108.787 38.2048 109.504 38.6126 109.989 39.2348C110.474 39.857 110.687 40.6424 110.581 41.4182ZM108.698 12.8226C109.11 12.2068 109.713 11.7379 110.419 11.4858C111.125 11.2337 111.895 11.2118 112.614 11.4235C113.346 11.6028 113.992 12.0228 114.445 12.6132C114.897 13.2037 115.13 13.9286 115.102 14.6668C115.007 15.8507 114.826 17.0266 114.561 18.1855C113.847 22.1071 113.155 26.0286 112.398 29.9079C112.052 31.4553 111.597 32.9391 111.1 34.5077C110.927 34.9981 110.638 35.4412 110.256 35.8008C110.019 36.0713 109.716 36.2788 109.375 36.4041C109.035 36.5295 108.667 36.5686 108.307 36.5179C107.947 36.4672 107.606 36.3282 107.315 36.1141C107.024 35.8997 106.793 35.617 106.643 35.2921C106.386 34.7092 106.246 34.0828 106.232 33.4479C106.232 30.8193 106.232 28.1697 106.405 25.5199C106.699 21.7384 107.278 17.9833 108.136 14.2852C108.237 13.7897 108.427 13.3159 108.698 12.8862V12.8226Z" fill="#8C8C8C"/>
<path fill-rule="evenodd" clip-rule="evenodd" d="M11.6534 58.4525C11.398 59.0112 11.3279 59.6341 11.4527 60.2336C11.5358 61.0237 11.7182 61.801 11.9958 62.5476C12.3423 63.4617 12.7301 64.3657 13.2083 65.4799C13.3183 65.7363 13.4332 66.0039 13.5534 66.2856C14.1983 67.795 15.0074 69.7241 16.0866 72.5159C16.3921 73.309 16.6633 74.1086 16.9365 74.9137C17.0468 75.239 17.1576 75.5654 17.2709 75.8925C17.6772 77.0554 18.3764 78.1001 19.3031 78.9281C19.6967 79.3832 20.2186 79.7148 20.8039 79.8806C21.4006 80.0497 22.0353 80.039 22.6256 79.8499C23.216 79.6606 23.7345 79.3017 24.1139 78.8197C24.4858 78.3472 24.707 77.7777 24.75 77.1828C24.9913 76.0239 24.9089 74.8223 24.5112 73.705C23.88 71.8499 23.161 69.9921 22.3319 68.175L22.3281 68.167C20.9641 65.3241 19.5776 62.5008 18.1256 59.6765L18.1147 59.6566C17.6896 58.9208 17.1372 58.263 16.4822 57.7128C16.057 57.2217 15.4705 56.8905 14.8228 56.7763C14.1613 56.6597 13.4791 56.7772 12.8979 57.1079C12.3481 57.4156 11.9122 57.8863 11.6534 58.4525Z" fill="#8C8C8C"/>
<path fill-rule="evenodd" clip-rule="evenodd" d="M32.486 51.4519C30.3474 50.9092 28.1138 50.8301 25.941 51.2203C24.2581 51.3826 22.6029 51.763 21.4535 52.5165C20.869 52.8999 20.3964 53.3923 20.1335 54.0181C19.8691 54.6474 19.8354 55.367 20.052 56.1688C20.4475 57.6376 20.9611 59.0656 21.473 60.489L21.5559 60.7196L21.5579 60.7247C23.0989 64.8599 24.6547 68.9812 26.2246 73.0883C26.4076 73.7356 26.6665 74.3599 26.996 74.9488L27.0022 74.9597C27.4374 75.6914 27.9957 76.3457 28.6534 76.8954C28.9823 77.1976 29.389 77.4066 29.8301 77.5001C30.2755 77.5943 30.7387 77.567 31.1692 77.4208C31.5999 77.2748 31.9813 77.0157 32.2719 76.6717C32.5579 76.3334 32.7451 75.9257 32.8139 75.4919C33.0976 74.3134 33.0067 73.0779 32.5532 71.9514C32.4116 71.5723 32.3006 71.1848 32.1836 70.777C32.1446 70.641 32.105 70.5027 32.0633 70.3617C35.6569 68.9854 39.4805 67.1346 40.825 62.8292C41.3515 61.3414 41.3954 59.7303 40.9506 58.2168C40.5054 56.7017 39.5919 55.3588 38.336 54.373C36.6268 52.993 34.6302 51.9959 32.486 51.4519ZM26.5579 56.7328C26.6286 56.7128 26.6999 56.6943 26.7714 56.677C29.1109 56.3166 31.5045 56.7968 33.5115 58.0288C34.3959 58.6316 34.7582 59.3012 34.8205 59.9456C34.8847 60.609 34.6385 61.3279 34.1439 62.019C33.2094 63.3245 31.504 64.3694 29.9634 64.5641C28.8404 62.0299 27.6999 59.3932 26.5579 56.7328Z" fill="#8C8C8C"/>
<path d="M46.7443 46.8131C49.2912 45.6606 52.4461 45.4615 54.9148 46.2719C55.5365 46.4493 56.0759 46.8331 56.4408 47.3577C56.8033 47.879 56.9706 48.5071 56.9147 49.1351C56.9111 49.5428 56.8089 49.9439 56.6168 50.3057C56.4212 50.674 56.138 50.9908 55.7911 51.2293C55.4442 51.4677 55.0438 51.621 54.6238 51.6757C54.2036 51.7306 53.7763 51.6855 53.3777 51.5442L53.3474 51.5335L53.3189 51.5188C53.115 51.4142 52.8984 51.3355 52.6743 51.2842L52.6602 51.2811C50.9235 50.8291 49.2854 51.578 48.6871 52.4982C48.4017 52.937 48.3663 53.3799 48.604 53.7828C48.8585 54.2142 49.4828 54.6984 50.7461 55.0435C51.0935 55.137 51.4497 55.2271 51.8109 55.3188C52.8099 55.5722 53.848 55.8355 54.8518 56.2004L54.8556 56.2019C59.4868 57.9284 61.2113 61.5042 60.6209 64.8675C60.0369 68.1935 57.2021 71.2204 52.939 71.9344C51.3878 72.2713 49.7735 72.2057 48.2558 71.744C46.7344 71.281 45.3629 70.436 44.2778 69.2928L44.2495 69.263C43.907 68.8322 43.6766 68.3262 43.5744 67.7893C43.4804 67.3048 43.53 66.804 43.7168 66.346C43.9026 65.8908 44.2169 65.4968 44.6224 65.2097C45.0507 64.8842 45.5671 64.6889 46.1075 64.6482C46.6462 64.6077 47.1852 64.7224 47.6582 64.978C48.1306 65.2017 48.5701 65.4869 48.9645 65.8262L48.9719 65.8324C49.6697 66.4577 50.5139 66.6206 51.3234 66.4697C52.1447 66.3166 52.9171 65.8404 53.4138 65.2086C53.9073 64.5808 54.1054 63.835 53.8703 63.111C53.6337 62.3817 52.9223 61.5646 51.3593 60.8815C50.9508 60.7115 50.5271 60.5744 50.0864 60.441C49.9676 60.405 49.8468 60.3691 49.7245 60.3328C49.3986 60.2359 49.0634 60.136 48.7346 60.026C48.5082 59.9504 48.2836 59.8788 48.0611 59.8077C47.4532 59.6137 46.8605 59.4246 46.29 59.171C45.0485 58.7568 43.9759 57.9615 43.2319 56.9028C42.4848 55.8399 42.1088 54.5688 42.16 53.2793C42.164 50.137 44.1838 47.972 46.7443 46.8131Z" fill="#8C8C8C"/>
<path d="M79.0337 46.4787C78.5399 46.2423 77.9938 46.1301 77.4448 46.1521C76.8956 46.1743 76.3607 46.3299 75.8885 46.6054C75.4191 46.8789 75.0262 47.2618 74.7446 47.7201C74.4864 48.1061 74.3077 48.5378 74.2186 48.991C74.1295 49.4439 74.1317 49.9094 74.2248 50.3612C74.3168 50.9419 74.4187 51.5067 74.5194 52.0636C74.6862 52.9852 74.8484 53.8861 74.9554 54.8047L74.9594 54.8279C75.2031 56.2685 75.3306 57.7254 75.342 59.1854L75.3431 59.2061C75.4264 60.7829 74.8781 62.3289 73.8159 63.5161L73.799 63.5372C73.4534 63.9712 72.9913 64.3025 72.4642 64.4939C71.9373 64.6854 71.3666 64.7294 70.8156 64.621C70.2646 64.5127 69.7553 64.2563 69.3445 63.8805C68.9338 63.5047 68.6375 63.0229 68.4896 62.4918C68.174 61.3723 67.9913 60.2209 67.9448 59.0605L68.484 50.649C68.492 50.5392 68.5011 50.4265 68.5103 50.3127C68.5308 50.0572 68.5519 49.797 68.5606 49.5543C68.5733 49.1972 68.5624 48.8299 68.4775 48.4823C68.3906 48.127 68.2253 47.789 67.9321 47.5012C67.6418 47.2163 67.25 47.0061 66.7568 46.863C65.8651 46.6101 65.1111 46.6181 64.4828 46.8794C63.8541 47.1407 63.4234 47.6258 63.1186 48.1861C62.8162 48.7418 62.6219 49.3996 62.4749 50.0585C62.3659 50.5474 62.2783 51.0607 62.195 51.5492C62.1661 51.7176 62.138 51.8829 62.1095 52.0434L62.1088 52.0481C61.6632 54.7274 61.5306 57.4478 61.7135 60.1565C61.7476 61.6203 62.0591 63.0652 62.6324 64.4174C63.2792 66.1621 64.4507 67.6738 65.9923 68.7529C67.5372 69.8341 69.3806 70.4299 71.2788 70.4614C73.1769 70.4929 75.04 69.9585 76.6213 68.9292C78.2001 67.9014 79.4236 66.4283 80.1301 64.7049C81.1183 62.5094 81.5824 60.1218 81.4866 57.7239C81.4286 55.9734 81.3314 54.2094 81.2346 52.4543C81.1871 51.5934 81.1398 50.7343 81.0973 49.8805C81.0759 49.0243 80.7878 48.195 80.2714 47.5039C79.9519 47.067 79.5267 46.7147 79.0337 46.4787Z" fill="#8C8C8C"/>
<path d="M96.513 59.668C96.4629 59.7304 96.4101 59.7949 96.355 59.862C95.9533 57.5915 95.581 55.3216 95.2081 53.0484C95.0744 52.2327 94.94 51.4136 94.8048 50.5969L94.7896 50.5058L94.7402 50.4271C94.6472 50.2789 94.6379 50.1336 94.6379 49.8238V49.788L94.6323 49.7526C94.5314 49.1127 94.2361 48.5173 93.7848 48.0442C93.3349 47.5724 92.7505 47.244 92.1077 47.1015C91.466 46.9464 90.7916 46.9806 90.1695 47.1998C89.549 47.4186 89.0082 47.8116 88.6145 48.3298C88.2872 48.7275 88.0189 49.1685 87.8178 49.6398C87.3615 50.6551 86.9013 51.6729 86.4397 52.6935L86.4317 52.7111C85.2795 55.2589 84.1194 57.8238 82.9931 60.4089L82.9897 60.4173C82.2982 62.0935 81.7275 63.8596 81.1587 65.6204C81.0451 65.9718 80.9315 66.3231 80.817 66.6735C80.6117 67.2291 80.5219 67.8193 80.5527 68.4093C80.5153 68.9375 80.6443 69.4644 80.9226 69.9187C81.2064 70.3824 81.6315 70.7471 82.1378 70.9618C82.6745 71.1924 83.2745 71.2413 83.8429 71.1009C84.4101 70.9607 84.9137 70.64 85.2746 70.1891C85.7354 69.6336 86.1318 69.0278 86.4551 68.386C87.4093 66.4736 88.3211 64.538 89.2288 62.6107C89.58 61.8653 89.9213 61.1976 90.3096 60.4706C90.3362 60.5602 90.3635 60.6476 90.3916 60.7353C90.7985 62.4907 91.4854 64.1722 92.4268 65.718C92.605 66.0455 92.8532 66.3316 93.1544 66.5569C93.4592 66.7849 93.811 66.9449 94.1853 67.0262C94.5595 67.1075 94.9474 67.1078 95.3219 67.0273C95.6958 66.9469 96.0487 66.7867 96.3537 66.5598L96.9573 66.1171L101.642 62.2504L101.365 63.9804C100.985 66.3584 100.608 68.7166 100.207 71.0753C99.9443 72.1207 99.9447 73.2127 100.208 74.2578C100.322 74.846 100.612 75.3875 101.042 75.8133C101.475 76.2426 102.03 76.5342 102.634 76.6505C103.239 76.7667 103.865 76.7024 104.432 76.4655C104.99 76.2322 105.465 75.842 105.797 75.3447C106.57 74.4056 107.05 73.2687 107.182 72.0693C107.381 70.3755 107.606 68.6586 107.831 66.9422C108.09 64.9638 108.348 62.986 108.567 61.0462L108.568 61.0402C108.778 58.9167 108.88 56.7846 108.873 54.6511C108.919 53.9769 108.748 53.3053 108.383 52.7313C108.016 52.1553 107.474 51.7075 106.833 51.4513C106.166 51.1542 105.419 51.0747 104.703 51.2249C103.991 51.374 103.347 51.7416 102.864 52.2742C101.999 53.0573 101.189 53.8953 100.437 54.7827L100.432 54.7887C99.6107 55.7911 98.7953 56.8131 97.9853 57.8285C97.4927 58.4458 97.0016 59.0616 96.513 59.668Z" fill="#8C8C8C"/>
</g>
<defs>
<clipPath id="clip0_826_582">
<rect width="127" height="80" fill="white"/>
</clipPath>
</defs>
</svg>
