<svg width="112" height="80" viewBox="0 0 112 80" fill="none" xmlns="http://www.w3.org/2000/svg">
<path d="M9.12335 72.5147V56.2163H6.46155V72.5147H9.12335Z" fill="#8C8C8C"/>
<path d="M10.7526 67.0819C10.7526 70.4116 12.978 72.7775 16.3598 72.7775C19.7415 72.7775 21.967 70.4116 21.967 67.0819C21.967 63.7521 19.7415 61.3862 16.3598 61.3862C12.978 61.3862 10.7526 63.7521 10.7526 67.0819ZM13.4362 67.0819C13.4362 65.1322 14.5926 63.774 16.3598 63.774C18.127 63.774 19.2834 65.1322 19.2834 67.0819C19.2834 69.0096 18.127 70.3897 16.3598 70.3897C14.5926 70.3897 13.4362 69.0096 13.4362 67.0819Z" fill="#8C8C8C"/>
<path d="M22.8622 66.8627C22.8622 70.0173 24.8912 72.2956 27.9239 72.2956C29.4948 72.2956 30.8476 71.6602 31.5239 70.6088V72.4489C31.5239 74.2233 30.4112 75.4063 28.5566 75.4063C26.8985 75.4063 25.764 74.5957 25.6112 73.1718H22.9277C23.2767 75.9977 25.4367 77.8379 28.4039 77.8379C31.8949 77.8379 34.1202 75.5376 34.1202 71.9669V61.6929H31.7639L31.6112 63.1606C30.9567 62.0214 29.6039 61.3423 28.0112 61.3423C24.9348 61.3423 22.8622 63.6863 22.8622 66.8627ZM25.5676 66.797C25.5676 65.0007 26.7022 63.6863 28.3822 63.6863C30.2149 63.6863 31.4366 65.0226 31.4366 66.797C31.4366 68.5933 30.2149 69.9734 28.3822 69.9734C26.7239 69.9734 25.5676 68.6153 25.5676 66.797Z" fill="#8C8C8C"/>
<path d="M35.4375 67.0819C35.4375 70.4116 37.663 72.7775 41.0447 72.7775C44.4265 72.7775 46.6519 70.4116 46.6519 67.0819C46.6519 63.7521 44.4265 61.3862 41.0447 61.3862C37.663 61.3862 35.4375 63.7521 35.4375 67.0819ZM38.1211 67.0819C38.1211 65.1322 39.2775 63.774 41.0447 63.774C42.8119 63.774 43.9683 65.1322 43.9683 67.0819C43.9683 69.0096 42.8119 70.3897 41.0447 70.3897C39.2775 70.3897 38.1211 69.0096 38.1211 67.0819Z" fill="#8C8C8C"/>
<path d="M49.5327 59.4801C50.4054 59.4801 51.1255 58.7791 51.1255 57.8809C51.1255 57.0047 50.4054 56.3037 49.5327 56.3037C48.6382 56.3037 47.9618 57.0047 47.9618 57.8809C47.9618 58.7791 48.6382 59.4801 49.5327 59.4801ZM48.2018 72.5144H50.8637V61.6927H48.2018V72.5144Z" fill="#8C8C8C"/>
<path d="M53.1956 77.5312H55.7918V71.025C56.4682 72.1422 57.93 72.7994 59.5446 72.7994C62.73 72.7994 64.6282 70.3459 64.5844 66.9723C64.5191 63.5768 62.5773 61.3643 59.5227 61.3643C57.8864 61.3643 56.4027 62.0872 55.7482 63.3358L55.5955 61.6929H53.1956V77.5312ZM55.9009 67.1037C55.9009 65.1541 57.0792 63.7958 58.9336 63.7958C60.7882 63.7958 61.9009 65.1759 61.9009 67.1037C61.9009 69.0315 60.7882 70.3897 58.9336 70.3897C57.0792 70.3897 55.9009 69.0534 55.9009 67.1037Z" fill="#8C8C8C"/>
<path d="M65.2604 69.2725C65.3477 71.4193 67.0059 72.7994 69.5803 72.7994C72.1112 72.7994 73.8348 71.4412 73.8348 69.3382C73.8348 67.7829 72.8749 66.7313 71.1076 66.2932L69.2095 65.8331C68.4022 65.6141 67.8567 65.3293 67.8567 64.6284C67.8567 63.8835 68.4458 63.3578 69.4058 63.3578C70.4095 63.3578 71.064 63.9273 71.064 64.8693H73.4858C73.3985 62.7224 71.8058 61.3643 69.4713 61.3643C67.1586 61.3643 65.4349 62.7224 65.4349 64.7817C65.4349 66.1837 66.2422 67.3447 68.315 67.8924L70.1913 68.3743C70.8895 68.5715 71.3258 68.9 71.3258 69.5134C71.3258 70.3678 70.5186 70.7621 69.5367 70.7621C68.3586 70.7621 67.6822 70.2144 67.6822 69.2725H65.2604Z" fill="#8C8C8C"/>
<path d="M79.3559 72.7994C80.8178 72.7994 82.2141 72.1202 82.8468 71.1125L83.0214 72.5146H85.5086V61.6929H82.8468V67.3666C82.8468 69.3162 82.105 70.4116 80.3596 70.4116C79.0069 70.4116 78.0687 69.7544 78.0687 67.5199V61.6929H75.4069V68.462C75.4069 71.0468 76.8032 72.7994 79.3559 72.7994Z" fill="#8C8C8C"/>
<path d="M90.5198 72.5146V66.2932C90.5198 64.5407 91.5452 63.7083 92.8107 63.7083C94.0761 63.7083 94.9052 64.5187 94.9052 66.0523V72.5146H97.5016V66.3151C97.5016 64.5407 98.5051 63.7083 99.7706 63.7083C101.058 63.7083 101.887 64.5187 101.887 66.0523V72.5146H104.461V65.4388C104.461 62.9416 103.087 61.3643 100.469 61.3643C98.8324 61.3643 97.5452 62.1529 97.0216 63.4235C96.4325 62.1529 95.2543 61.3643 93.4653 61.3643C92.1998 61.3643 91.0652 61.9557 90.4325 62.9196L90.3016 61.6929H87.858V72.5146H90.5198Z" fill="#8C8C8C"/>
<path d="M48.986 41.4622C45.4793 47.7971 38.3394 50.811 31.1199 50.811H2.15381C32.3077 47.0272 53.3077 31.8921 56 10.811C58.6923 31.8921 79.6923 47.0272 109.846 50.811H80.88C73.6605 50.811 66.5206 47.7971 63.014 41.4622C59.2185 34.6056 56.8003 26.8471 56 18.3786C55.1996 26.8471 52.7815 34.6056 48.986 41.4622Z" fill="#8C8C8C"/>
<path d="M32.4209 39.223C30.7294 40.179 28.9501 41.0769 27.087 41.9134C26.0287 38.2435 25.6393 34.3932 25.9499 30.5578C26.3607 25.4837 27.984 20.5919 30.6759 16.3159C33.3678 12.0399 37.0452 8.5115 41.3824 6.04328C45.7196 3.57506 50.5828 2.2432 55.541 2.1657C60.4993 2.08818 65.3996 3.26742 69.808 5.59893C74.2164 7.93043 77.9967 11.3422 80.8141 15.5322C83.6315 19.7221 85.3991 24.5608 85.9602 29.6196C86.4191 33.7575 86.0594 37.9382 84.913 41.9134C83.05 41.0769 81.2707 40.1789 79.5791 39.2229C80.2923 36.3167 80.4922 33.2934 80.1599 30.2979C79.7074 26.2184 78.282 22.3165 76.0101 18.9378C73.7381 15.5591 70.6897 12.8077 67.1348 10.9276C63.5798 9.04748 59.6282 8.09656 55.6299 8.15906C51.6315 8.22156 47.7099 9.29557 44.2125 11.2859C40.7149 13.2763 37.7494 16.1216 35.5787 19.5698C33.4079 23.018 32.0989 26.9626 31.7676 31.0544C31.5449 33.8047 31.7685 36.5645 32.4209 39.223Z" fill="#8C8C8C"/>
</svg>
