<svg width="80" height="80" viewBox="0 0 80 80" fill="none" xmlns="http://www.w3.org/2000/svg">
<g clip-path="url(#clip0_826_580)">
<path fill-rule="evenodd" clip-rule="evenodd" d="M20 0C31.0456 0 40 8.9543 40 20V0H60C71.0456 0 80 8.9543 80 20C80 31.0456 71.0456 40 60 40C71.0456 40 80 48.9544 80 60C80 65.4846 77.7922 70.4536 74.217 74.0668L74.1422 74.1422L74.0758 74.2082C70.4618 77.7886 65.4892 80 60 80C54.5482 80 49.6058 77.8186 45.998 74.281C45.9512 74.235 45.9044 74.1886 45.8578 74.1422C45.814 74.0984 45.7704 74.0544 45.727 74.0102C42.1848 70.4018 40 65.456 40 60C40 71.0456 31.0456 80 20 80C8.9543 80 0 71.0456 0 60V40H20C8.9543 40 0 31.0456 0 20C0 8.9543 8.9543 0 20 0ZM36 20C36 28.8366 28.8366 36 20 36V4C28.8366 4 36 11.1634 36 20ZM76 60C76 51.1634 68.8366 44 60 44C51.1634 44 44 51.1634 44 60H76ZM4 44V60C4 68.8366 11.1634 76 20 76C28.8366 76 36 68.8366 36 60V44H4ZM44 36V4H60C68.8366 4 76 11.1634 76 20C76 28.8366 68.8366 36 60 36H44Z" fill="#8C8C8C"/>
</g>
<defs>
<clipPath id="clip0_826_580">
<rect width="80" height="80" fill="white"/>
</clipPath>
</defs>
</svg>
